<mxfile host="app.diagrams.net" modified="2021-01-12T21:51:58.356Z" agent="5.0 (X11)" etag="pJo384zpvGX-0vSjyZAP" version="14.1.9" type="github">
  <diagram id="s-Z1V-KuYEndlOhqluZ3" name="Page-1">
    <mxGraphModel dx="1216" dy="767" grid="0" gridSize="10" guides="1" tooltips="1" connect="1" arrows="1" fold="1" page="1" pageScale="1" pageWidth="850" pageHeight="1100" math="0" shadow="0">
      <root>
        <mxCell id="0" />
        <mxCell id="1" parent="0" />
        <mxCell id="uXcgF_b3eWIGet4o3PPk-8" value="" style="shape=image;html=1;verticalLabelPosition=bottom;verticalAlign=top;imageAspect=1;aspect=fixed;image=data:image/jpeg,/9j/4AAQSkZJRgABAgAAZABkAAD/7AARRHVja3kAAQAEAAAAPAAA/+4ADkFkb2JlAGTAAAAAAf/bAIQABgQEBAUEBgUFBgkGBQYJCwgGBggLDAoKCwoKDBAMDAwMDAwQDA4PEA8ODBMTFBQTExwbGxscHx8fHx8fHx8fHwEHBwcNDA0YEBAYGhURFRofHx8fHx8fHx8fHx8fHx8fHx8fHx8fHx8fHx8fHx8fHx8fHx8fHx8fHx8fHx8fHx8f/8AAEQgB7AJYAwERAAIRAQMRAf/EAMoAAQEAAgMBAQAAAAAAAAAAAAAGBAUCAwcBCAEBAAMBAQEAAAAAAAAAAAAAAAECAwUEBhAAAAUBAwQLCQsIBwcEAgMAAAECAwQFERIGIRMVBzFBUdEikpPTFFRVYZEyUlOEtBc38HGBQtIjc6OzpCihsWJygjM0laKywiTUFgjBQ2ODdDU2w0QlJ0V1ZJQmEQEAAAIECQkIAwADAQEAAAAAAQJRUgMT8BFhkdESogQUQaGCkrLSMzQGMXGxIlMkJRYhwTKBQgUjFf/aAAwDAQACEQMRAD8A9K1Y6scD1vA9NqdTpvSJ0jP557PyEW3JDiE8FDiUlYlJFkIeHd93kmkhGMP5faf+7/7u92G9z2dnPikhq4oastWEeWCp9S+rTsf7zK50bcLZ0fFyf2bf/qbMndPUvq07H+8yudDhbOj4n7Nv/wBTZk7p6l9WnY/3mVzocLZ0fE/Zt/8AqbMndPUvq07H+8yudDhbOj4n7Nv/ANTZk7p6l9WnY/3mVzocLZ0fE/Zt/wDqbMndPUvq07H+8yudDhbOj4n7Nv8A9TZk7p6l9WnY/wB5lc6HC2dHxP2bf/qbMndPUvq07H+8yudDhbOj4n7Nv/1NmTunqX1adj/eZXOhwtnR8T9m3/6mzJ3T1L6tOx/vMrnQ4Wzo+J+zb/8AU2ZO6epfVp2P95lc6HC2dHxP2bf/AKmzJ3T1L6tOx/vMrnQ4Wzo+J+zb/wDU2ZO6epfVp2P95lc6HC2dHxP2bf8A6mzJ3T1L6tOx/vMrnQ4Wzo+J+zb/APU2ZO6epfVp2P8AeZXOhwtnR8T9m3/6mzJ3T1L6tOx/vMrnQ4Wzo+J+zb/9TZk7p6l9WnY/3mVzocLZ0fE/Zt/+psyd09S+rTsf7zK50OFs6Pifs2//AFNmTunqX1adj/eZXOhwtnR8T9m3/wCpsyd09S+rTsf7zK50OFs6Pifs2/8A1NmTunqX1adj/eZXOhwtnR8T9m3/AOpsyd09S+rTsf7zK50OFs6Pifs2/wD1NmTunqX1adj/AHmVzocLZ0fE/Zt/+psyd09S+rTsf7zK50OFs6Pifs2//U2ZO6epfVp2P95lc6HC2dHxP2bf/qbMndPUvq07H+8yudDhbOj4n7Nv/wBTZk7p6l9WnY/3mVzocLZ0fE/Zt/8AqbMndPUvq07H+8yudDhbOj4n7Nv/ANTZk7p6l9WnY/3mVzocLZ0fE/Zt/wDqbMndPUvq07H+8yudDhbOj4n7Nv8A9TZk7p6l9WnY/wB5lc6HC2dHxP2bf/qbMndPUvq07H+8yudDhbOj4n7Nv/1NmTunqX1adj/eZXOhwtnR8T9m3/6mzJ3T1L6tOx/vMrnQ4Wzo+J+zb/8AU2ZO6epfVp2P95lc6HC2dHxP2bf/AKmzJ3T1L6tOx/vMrnQ4Wzo+J+zb/wDU2ZO6epfVp2P95lc6HC2dHxP2bf8A6mzJ3T1L6tOx/vMrnQ4Wzo+J+zb/APU2ZO6epfVp2P8AeZXOhwtnR8T9m3/6mzJ3T1L6tOx/vMrnQ4Wzo+J+zb/9TZk7p6l9WnY/3mVzocLZ0fE/Zt/+psyd09S+rTsf7zK50OFs6Pifs2//AFNmTunqX1adj/eZXOhwtnR8T9m3/wCpsyd09S+rTsf7zK50OFs6Pifs2/8A1NmTunqX1adj/eZXOhwtnR8T9m3/AOpsyd09S+rTsf7zK50OFs6Pifs2/wD1NmTunqX1adj/AHmVzocLZ0fE/Zt/+psyd09S+rTsf7zK50OFs6Pifs2//U2ZO6epfVp2P95lc6HC2dHxP2bf/qbMndPUvq07H+8yudDhbOj4n7Nv/wBTZk7p6l9WnY/3mVzocLZ0fE/Zt/8AqbMndPUvq07H+8yudDhbOj4n7Nv/ANTZk7p6l9WnY/3mVzocLZ0fE/Zt/wDqbMndPUvq07H+8yudDhbOj4n7Nv8A9TZk7p6l9WnY/wB5lc6HC2dHxP2bf/qbMndPUvq07H+8yudDhbOj4n7Nv/1NmTunqX1adj/eZXOhwtnR8T9m3/6mzJ3T1L6tOx/vMrnQ4Wzo+J+zb/8AU2ZO6epfVp2P95lc6HC2dHxP2bf/AKmzJ3T1L6tOx/vMrnQ4Wzo+J+zb/wDU2ZO6epfVp2P95lc6HC2dHxP2bf8A6mzJ3T1L6tOx/vMrnQ4Wzo+J+zb/APU2ZO6epfVp2P8AeZXOhwtnR8T9m3/6mzJ3T1L6tOx/vMrnQ4Wzo+J+zb/9TZk7p6l9WnY/3mVzocLZ0fE/Zt/+psyd09S+rTsf7zK50OFs6Pifs2//AFNmTunqX1adj/eZXOhwtnR8T9m3/wCpsyd09S+rTsf7zK50OFs6Pifs2/8A1NmTunqX1adj/eZXOhwtnR8T9m3/AOpsyd09S+rTsf7zK50OFs6Pifs2/wD1NmTunqX1adj/AHmVzocLZ0fE/Zt/+psyd09S+rTsf7zK50OFs6Pifs2//U2ZO6epfVp2P95lc6HC2dHxP2bf/qbMndS2s7VjgeiYHqVTplN6POj5jMvZ+Quy/IbQrgrcUk7UqMspDHeN3klkjGEP5db/AML/AN3e7fe5LO0nxyR1scNWWrGPJBU6l/ZpR/OfSnRtuvhww5XJ9TeftOj2JVsPQ4IAAAAAAAAAAAAAAJzEWNYtLmt0iBFdrGIn0ZxmkxbCUlszszsh1XAYat+Ms8vxSMBgIpmtOolnJdagUJJ5UxafFOY4kj2lSJKkoMy7jJAOX+XtZEYr8XFrU1ZZSZqFOZuK7l+KqOpPv2GA6v8APlUobiGcb0wqZHUZITXoa1SKaajyFnVGlLsa3/iJu/pALRtxDiEuNqJbayJSFpO0jI8pGRkA+gAAAAAAAAAAAAAAAAAAAAAAAAAAAAAAAAAAAAAAAAAAAAAAAAPilJQk1rMkpSRmpRnYREWyZmA0J4ocmrU3QIS6kSTsVMUrMxCMsmR1RGbln/DSoBxa/wA7PLdI36cwppRFmyaecI7UkrwzWjd8URCK0ZcUIRpfVVjEdOK9VaamTGLKuVTVKcNJbqo6yJdn6hq94Sq3ECoQahFRLhPJkR3PBcQdpZNkj3DLbIwGQAAAAAAAAAAAAAAAAAAInXR7NKx5t6U0PPvXhxw5Xe9M+fs+l2JjUv7NKP5z6U6G6+HDDlPU3n7To9iVbD0OCAAAAAAAAAAAAANDjTEjtBo2eiMlKq0x1EKkQzOwnpbx2Nkoy2EJyrWe0lJgGD8KM4fp6ycdOZWJy+kViqLL5yTIMsqj8VCfBbQWRKchAN8AAOLrTTzS2nUJcacSaXG1kSkqSZWGRkeQyMBCRG14Cr0SnIUo8F1p7MQULM1FTZy8qGEmeUo8g8iC+IvglkUVgXoAAAAAAAAAAAAAAAAAAAAAAAAAAAAAAAAAAAAAAAAAAAAAAAOuRIYjMOSJDiWmGkmt1xR2JSlJWmZmAnWIcnEykzKkhbNCtJUKmKtSqQWyT0kvFPZS38KtwBSoQhCEoQkkoSRElJFYREWwREQDojfxMv6RP2aRWX2xaz/5l939xZAsyTlYgPUiS5X6Sgz+NVqejwZDZeE6hO08gspH8Ysh7QDfxpLEqO1JjrJxh5JONOJ2FJUVpGXwAOwAAAAAAAAAAAAAAAABE66PZpWPNvSmh5968OOHK73pnz9n0uxMal/ZpR/OfSnQ3Xw4Ycp6m8/adHsSrYehwQAAAAAAAAAAAABGJTpnWk4pfCiYUhJJpJ7HTqlaal++3GbIi+kMBZgAAAANViugMYhw7PozyrhTGVIbdLZbdLhNOps+M24SVF3SAY2BK6/XMI0upySuzXWc3NSW1JZM2ny+B1CgG+AAAAAAAAAAAAAAAAAAAAAAAAAAAAAAAAAAAAAAAAAAAAAAE7Uk6crqaSeWmU25IqSdp15XCYYP9FNmcUX6oCiAAGPG/iZf0ifs0isvti1n/wAy+7+4sgWZADQYXLob9UopfuoEjORS2iYklnUJL9RRrSXcIBvwAAAAAAAAAAAAAAAAETro9mlY829KaHn3rw44crvemfP2fS7ExqX9mlH859KdDdfDhhynqbz9p0exKth6HBAAAAAAAAAAAAAEhq9LOy8WzVfvZFdktqP9GM0zHQXeat+EBXgAAAAACP1aFchV6OX7uPXqmhotxKnzcs77hgLAAAAAAAAAAAAAAAAAAAAAAAAAAAAAAAAAAAAAAAAAAAAAB8UokpNRnYRFaZ9wgGjwYg1URM9ZfPVRxyc6Z7PzyrWy/ZbJKfgAb0AAY8b+Jl/SJ+zSKy+2LWf/ADL7v7iyBZkANHBy4wqxp2CiQ0q/WvPH+YBvAAAAAAAAAAAAAAAAAETro9mlY829KaHn3rw44crvemfP2fS7ExqX9mlH859KdDdfDhhynqbz9p0exKth6HBAAAAAAAAAAAAAEfq/PMz8XU9eR6PXH3jLbNEtlmQhXvfOGXwALAAAAAAMyIrT2AEfqq+fws5VNqs1CfUUd1uRKcNo/eNskmXcAWAAAAAAAAAAAAAAAAAAAAAAAAAAAAAAAAAAAAAAAAAAAAADpmoUuG+hOVSm1pSXdNJkA1+ElpXhekqTsHEZs5MgG2AAGPG/iZf0ifs0isvti1n/AMy+7+4sgWZADQ4VPpaqlWfiVGSfRj3Y8ciZbP8AaNKlfCA3wAAAAAAAAAAAAAAAACJ10ezSsebelNDz714ccOV3vTPn7PpdiY1L+zSj+c+lOhuvhww5T1N5+06PYlWw9DggAAAAAAAAAAAACKnuFh7WTGnucCl4rZRT33PioqMW8qNePaz7KloLupSW2AtQAAAAErrJq0qJhxVOpyrK1XnE0qlkWyTskjJbuTaZaJbpn+iA39JpkWlUqHTIibsWCy3HYTuIaSSE/kIBlgAAAAAAAAOKnG0qSlSiJS7SQkzIjMyK07N3IA5AMWbVKZBu9NmMRb/gZ5xDdtm5eMrQCPVKdIluw2JCHZLDbbzrSDIzS29ezazs2l3FWe8A7kSI63nGEOoU+0STdaJRGpJLtumpOyV6w7AHYAAAAAAAAAAAAAAAAAAAAAAAAAAAAAANFgw83SF09X7ymSH4ii/RQ4am++2tJgN6AAMeN/Ey/pE/ZpFZfbFrP/mX3f3FkCzJoMRzHpbqcPU9ZpmTE2zH0/8Atop5FuGe0tfgtlu5doBu4sZiLGajR0E2wwhLbTZbCUpKwi7wDsAAAAAAAAAAAAAAAAAROuj2aVjzb0poefevDjhyu96Z8/Z9LsTGpf2aUfzn0p0N18OGHKepvP2nR7Eq2HocEAAAAAAAAAAAAAa7EVApuIKPJpNRQao0lJEakHdcQtJkpDjaiypW2siUlW0ZANDhDElQamqwnidZFiOIg1RZdlxupRU5CktbWcIsjzZeCrL4JkArwABj1CoQabBfnz30RocZBuSJDqiShCElaZmZgJHCcWbiKuHjaqMLjxiaVHwxAeK6tqK5Ybkp1J+C7JsKwtlLZEWyagFsAAAAAAAAAAIrE8WMnWNgyUTZFIccnoW78Y0phLMk+9lAWaXG1LUhKyNaLL6SMjNNpWlaW1kARWBY7Eqs4seqbaXa0mqOsOE8RKWiCSEnDQglbDSmjvFZkNRq27QGrqqplNrmK5dCktQGqVQoUiO0hltbSswctaWzI8iWzJNh3bD3DBLsquL6rHYxNPhIjsSo0KkPx3DaJR3palEonVZFLSkvBt2AFJQalVP80VuizZJTGoTUOVGeNCW1pKXnkqbUSLEmSTj2pOy3Llt2QQowAAAAAAAAAAAAAAAAAAAAAAAAAAAAE5U1KoVZVWbDOlTkobqppK3MuIyNSDLxbp3HNzIe0YCibcQ4hLjaiWhZEpC0naRkeUjIyAfQGPHMikSzPIRLTaf/AC0isvti1n/zL7v7ii8e40mNUaSvDLinHIa0nNqDSErYbQZ3TRfXalS7VF4Ftm2LMm11dHGfwvFqKDNyXPLOz5Dh33HH0maFGpR7l2xJbBEApwAAAAAAAAAAAAAAAAABE66PZpWPNvSmh5968OOHK73pnz9n0uxMal/ZpR/OfSnQ3Xw4Ycp6m8/adHsSrVRmSTMiNRkVpJKy0+5lHocKDB0jN7MkcdjnBnrxojzaW9zJXl2tD7pCb2ZI47HOBrxojzaS5kry7Wg0hN7MkcdjnA140R5tJcyV5drQaQm9mSOOxzga8aI82kuZK8u1oNITezJHHY5wNeNEebSXMleXa0GkJvZkjjsc4GvGiPNpLmSvLtaDSE3syRx2OcDXjRHm0lzJXl2tBpCb2ZI47HOBrxojzaS5kry7Wg0hN7MkcdjnA140R5tJcyV5drQaQm9mSOOxzga8aI82kuZK8u1oNITezJHHY5wNeNEebSXMleXa0NRiSjxcRQkxahSZRLZWTsOWy6y1IjvJ8F1h1Ll5Cy7nvHaQa8aI82kuZa8u1oaeDUNadGV0aXSk4lgIL5qel6PCnWFtOsmpTDirPjIWi3xRaE0Y8is9nLCH8TQjn0PsPWLiasRXXaDg6W8bbrsdTk6VEitE8ws23E3kOPrMkrSZWknKJjFnLLjj/McTqj4axHWJrFRxsyqd0ZZOw6FDNpFOZcTlS45fdvyXE/FUuxJbJIIxTXjRHm0trmWvLtaFnpCb2ZI47HOBrxojzaS5kry7Wg0hN7MkcdjnA140R5tJcyV5drQaQm9mSOOxzga8aI82kuZK8u1oNITezJHHY5wNeNEebSXMleXa0GkJvZkjjsc4GvGiPNpLmSvLtaDSE3syRx2OcDXjRHm0lzJXl2tBpCb2ZI47HOBrxojzaS5kry7Wg0hN7MkcdjnA140R5tJcyV5drQaQm9mSOOxzga8aI82kuZK8u1odDrinpDEl2jOOSI144zyujGtu+V1dxRuWpvJyHYGvGiPNpLmSvLtaBlWYkyJLNFcbkSzScp5PRyW4aE3UGtROWqupyFaGvGiPNpLmSvLtaHRNixprxPS6Cp54k3CdV0e/c8S9nLbvc2A140R5tJcy15drQ5dHi3Hmyw+ZNyGUxn0XYti2UEZJaUV/KhJKMiTsZQ140R5tJcyV5drQOMRnEOocoBqQ+ltDyTKKZLSzlbSr5zKSPi7ga8aI82kuZa8u1odyHVtyXZSKM4mS+SEvPEcclrS3bcJSs5aZJvHZbuhrxojzaS5kry7Wh3aQm9mSOOxzga8aI82kuZK8u1oNITezJHHY5wNeNEebSXMleXa0GkJvZkjjsc4GvGiPNpLmSvLtaDSE3syRx2OcDXjRHm0lzJXl2tBpCb2ZI47HOBrxojzaS5kry7Wg0hN7MkcdjnA140R5tJcyV5drQaQm9mSOOxzga8aI82kuZK8u1oNITezJHHY5wNeNEebSXMleXa0GkJvZkjjsc4GvGiPNpLmSvLtaDSE3syRx2OcDXjRHm0lzJXl2tBpCb2ZI47HOBrxojzaS5kry7Wg0hN7MkcdjnA140R5tJcyV5drQaQm9mSOOxzga8aI82kuZK8u1oNITezJHHY5wNeNEebSXMleXa0GkJvZkjjsc4GvGiPNpLmSvLtaDSE3syRx2OcDXjRHm0lzJXl2tBpCb2ZI47HOBrxojzaS5kry7Wg0hN7MkcdjnA140R5tJcyV5drQaQm9mSOOxzga8aI82kuZK8u1oNITezJHHY5wNeNEebSXMleXa0GkJvZkjjsc4GvGiPNpLmSvLtaDSE3syRx2OcDXjRHm0lzJXl2tD4qfLUk0qpb5pMrDI1RzIyP8A5ga8aI82kuZK8u1oaHQ1QhqUqhomUxKjtOJbGfi2ns3Wlu2o/YUQa8aI82kuZa8u13XZncfmV0yYSXjpjpNXeOVYGvGrHmTcyV5c02hiM0SZLkSTrKZ9TTfTejX47Ea3Np2WmnE3v2lKEQnjjj8sebStNYy4ofPLtU+5s6zGdmYemUlqkOtMvR1tNNoOOlKTNJ3bEk5tGJ140R5tKlzLXl2tCO1K12WqgzKccJ5xcOResSporEulbZwlp+MlQmM0YcistnLH2zQhn0PRNITezJHHY5wRrxojzaVrmSvLtaDSE3syRx2OcDXjRHm0lzJXl2tBpCb2ZI47HOBrxojzaS5kry7Wg0hN7MkcdjnA140R5tJcyV5drQaQm9mSOOxzga8aI82kuZK8u1oNITezJHHY5wNeNEebSXMleXa0GkJvZkjjsc4GvGiPNpLmSvLtaDSE3syRx2OcDXjRHm0lzJXl2tBpCb2ZI47HOBrxojzaS5kry7Wg0hN7MkcdjnA140R5tJcyV5drQaQm9mSOOxzga8aI82kuZK8u1oNITezJHHY5wNeNEebSXMleXa0GkJvZkjjsc4GvGiPNpLmSvLtaGTGeddbvOMLYVbZcWaDOzd4ClF+UXljj5GU8sIR/iOPDKjtdHs0rHm3pTQw3rw44crt+mfP2fS7ExqX9mlH859KdDdfDhhynqbz9p0exKth6HBAAAAAAAAAAAAAAAAAEfqmtVgeM6fhPyqg8Z7ucnvqL8gCwAAAAAAAAAAAAAAAAAAAAAAAAAAAAAAAAAAAAAAAAAAAAAAAAAAAAAAGPG/iZf0ifs0isvti1n/zL7v7iyBZk8owKWh9aVcpHgtSc6ppPvKJ5H9BZgl6uCAAAAAAAAAAAAAAAAABE66PZpWPNvSmh5968OOHK73pnz9n0uxMal/ZpR/OfSnQ3Xw4Ycp6m8/adHsSrYehwQAAAAAAAAAAAAAAAABIapPZ5Rz21JdUrump9xRn3zAV4AAAAAAAAAAAAAAAOtcmM282wt1CH3rcy0pREtd0rVXUnlOwtmwB8lSosRhciU8iOw3ZfedUSEJtOwrVKMiLKYDjDnwZzOfhSGpTNppzrK0uJtLZK8kzIB0Lr1FRPOnqnsFPIjM4mcTncibx8C29bdy2WbADup1RhVKBHnwXSfhym0ux3iIyJSFFakyIyI8oDIAdM6bFgwpE2W4TUWK2t590yMyS22k1KVYVp5CIBxdqMJqnLqTjpJgtsnIW/lsJok3zXu+DlAc4kuPMiMy4yycjSG0usuFbYpCyJSVFbukYDtAAAAAAAAAAAAAAAAAAAAAAAAAAGPG/iZf0ifs0isvti1n/zL7v7iyBZk8pxR/8AGa46PNLgpmpaSs/1rzB2/BYCXqwIAAAAAAAAAAAAAAAAAETro9mlY829KaHn3rw44crvemfP2fS7ExqX9mlH859KdDdfDhhynqbz9p0exKth6HBAAAAAAAAAHB+QxHZW/IcSyy2RqcdcUSUpSWyalHkIgELJ17aqo9UTTVV9pbyiMydaQ66yZl8UnW0qQpR7hHs5NkDEy/8APtXn/wDj2FqjOQfgy5pIpscy3S6QefMveaAcs3ram+E9RaM2raQiTUHU/tKOIj+iA0uIzrNGJlus45nuTpVpQ6VSIEMpMgy2SaaNuS7YW2o1EktswS1CMDa061Y6WIalhuKeVPSpiJk0y2eEzGQxHb97OKAa3AGq7FM/A1Jmwsf1inHJjk4mMi6thu+ZmZJRak9m3bAZ7tJx1hcr+IsQVh6lp8Kv011qQllPjyochh1xKS21tqWRbZEQCvi0fHS4zUyk41ZqMV5BOMLmQI7yHEKK1Jk7EVGyGW2RAh2HU9adPK2XRabWmy+NTpS4rtn0MpKkfXAOTWtDDzLqY9dZl4bkLMkpTVmTZZNR7SZSDcjHygDurutLV9Qn0MVSuRmXVpQu6k1O2Jc8BS80S7hK2jVZaAo4cyLNiMzIjqX4shCXWHmzJSFoWV5KkmWyRkYDuAAAAAAABF4mjRUax8GyEtITJdVUErdJJEtSUxDsI1bJkVoDe11mFVYL1NTKjJeS/HziHiS+lK23ESEocavJtvpRsWlkygMLAlRcmQKg0uNHYVT6hIh56GjNR5Gau/PIRaqw+FdUVp8JJ5QE5GckYdr7EaLIiVmgYhqsxxuyzpsKW6h119V9JqS60hSFoMzJKkEZJtMgS09ExDXsPYSwy9EkHUEy6DNkIpq0IuZ2FGQ8zmjQROZbbqiNR29wwG3r2J6/SoMVcGpnU3KhRahNW7m2lE07Gik81IaS2krGzcVcurvW2l3bQYjxJIlRZsApiHYr2EZlQfSm4d500oSl28RZCNKlbGQBh1KrVGXQsSQnJ+j4VGoDC47JJbMn+kQlqW64biTUaCNNxJIMspGA6MPYgxjIpzkSlLaaXR41LahMPustsrbXCYeU4+S0qdUlw3FoSpBlZdyZbQGxTVsdTY9YmwZxv9Erb9ObprRRWXOhsulezLjyTSqRdyJvndu2/GygLfDNXYq+H4FSYU6tuQylRLkIS28ZlwVG4hPBJV4jtu5NzICGzAAAAAAAAAAAAAAAAAAAAAAGDV67R6Oxn6nMaiNZTI3FERnZs3U7J/AAgadr71cS66qmQpb8uVMdSmITUdw0undJNiDMk3rTTksEQh/MV5o44QyaV3S8QUmprW1Fe/vLRWuxXUqaeR+s2skqs7tlglR53rnT0ar4dqJZDbcURn+ottZf7QTB6qWUrQQAAAAAAAAAAAAAAAAAInXR7NKx5t6U0PPvXhxw5Xe9M+fs+l2JjUv7NKP5z6U6G6+HDDlPU3n7To9iVbD0OCAAAAAAAAAIGtU6BinWA/Qq9Y7RKRAjzGaS4djUp+U662b7qcmcSyTRJQk8hKVbs2ANBrV1ZYRpmruoOUGBFo78d1iWl9lkjdW424RNNIWZ3k3nDSWQ/gBL1tu/m03/AA7Cve/ZlBCdxjiiTS0xKZSGUzMS1ZSmqXFWZ5tJJIjdkvmWVLLJHarbM7EllMBzwrg2HQ87NfdVUsQTSI6nWnyLPPKL4qSLI00n4jaOCXv5QFCrwT94BJapPZth7/o0fnMBWmRGVh5SPZIBAraLAFeadjlcwVW5BNPxyyIps95ViHG9pEeQs7q07CHDIyyKMBfAOD7DL7K2X20usuFdcbWRKSoj2SMjyGA8D1bQsFwsIya3KedjSCqb0PGVIazS4is9NWy2mTFdI0ttNJdRYtBJMiI+6CV9qRehqwpOjU11T9FhVafGozilXiOGh61skKPZQm8ZJPcBEXoIAAAAAAAOtceOt5t5bSFPM3sy4pJGpF4rFXTPKVpbNgDpepNKfzuehsOG+pLjxrbQq+tBXUKVaWVSUlYRnsAO9hhiOyllhtLLKCsQ22kkpSW4RFkIBjs0iksSXZTMJhqS9bnn0NIS4u9s3lEVp27doDtRBhN5nNx20dGSaI91CSzaTIiNKLC4JGRbQDhFpdNiKWqLEZYU4Vjimm0oNRbNh3SK3ZAdbFEosdtbceBGZbcQptaEMoSlSF+EkyIspK2yAc36TS5CkLfhsPKbTm21LbQo0oP4pWlkLuAPjlHpDjrLzkGOt6Mkkx3FNINTaU5UkgzK1JFtWAOTtLpjzSmXYjLjS3DeW2ptBpNw8prMjKy93dkBkIQhtCW20khCCJKUJKwiIshEREA+gAAAAAAAAAAAAAAAAAAAANNWqxKbkN0qlIS9V5Cb5X7TajtW2G+9ZtW5Ep+MfwgPM9e9HapGrt6StTst6VLjNVqpL4T6oprtdSizI2g7LCSmwgTBh6516v3NWK6nTnoqHYa4x4XkQzQTiVpQ2baGjTwiIk5TLaFYe2LSb2S+7+4vV5VGRWaVDekXo1VbaQ4xNQRE8y8aSM7D2yt8JJ5DFmTzTWrU3qhQaQqUgm58WW/FmoT4JPNpIlGn9FZWKT3DBL2GOZnHaM9k0J/MCHYAAAAAAAAAAAAAAAAAiddHs0rHm3pTQ8+9eHHDld70z5+z6XYmNS/s0o/nPpTobr4cMOU9TeftOj2JVsPQ4IAAAAAAAAA821v4ajV2o4VhRybarb88yjy3EG4hMaO0qU6l5olIJ1o1st8Ez2bLLDBLZHhvGtenQSxW/T2qRTn0SzhU3PKOXIZO8ybynrLjTa7F5srbVEVp2ECFo++zHYcffWTbLSTW64o7EpSkrVGZ7hEAjtXkZ6qLmY4noNMyvWFTG17MelNmZxWyI/BN398vuqLxQFoAK2DASOqT2bYfLciJI+4ZGZGXfAVwDDrNIgVmlS6VUGyehTWlsSGz20LKw7D2jLaMBodXVVnyKM9Saq4btaw++qmVB1XhO5oiUxI/57CkL98zAVQDzDHmoPCuJZs+qxVuU2qT2lplGySFNPOGk7q1oWlV1VuyabLffygnGo9U7dNb1c0BFOjlEYTEQTkcst19NpSCMzttVniXb3QQrAAAAAAAAAAAAAAAAAAAAAAAAAAAAAAAAAAAAAAAAAABi1SosU2nSJ8i3NRm1OKItk7CyJLuqPIQDBw1TH4sRcudYdWqKifnK8VRlwGU/otJ4Jd/bAZtWpNOq9NkU2pMJkwZSDbfZWVpKSYD854O1Q4Og6+Krh2U24/T6dGZqtJjuLI0qVa2d107LVkhSzsK3LZltBL9Lgh4jrdv/wCaE09BcGUtiSRf8RSOjn3yQkEvbUJJCEoLYSREXwAh9AAAAAAAAAAAAAAAAAROuj2aVjzb0poefevDjhyu96Z8/Z9LsTGpf2aUfzn0p0N18OGHKepvP2nR7Eq2HocEAAAAAAAAAR8wul62aa0eVFJo0mSXccmSG2U99DCwFgAjtZzjkulQcMMKNL+JpjdPcNJ8JMMiN6aovN21J99RAK9pptppDTSSQ22kkoQkrCJKSsIiLuAOQAAkdUns7ov0bn2ywFcAAIySWh9acR9PBi4ogrivltHMp1rrKv1lR3HC95BbgCzAAEdq6IobmJaHsFTKxIUyjcYnEmaizuWvqT8ACxAAAAASeL2q0zJhSKVUH9IvzYrcaAV3o5xyWnpedRZlTmb6jWZ2kd0i7oVgCBk4qrVAxJVJ1VcKRg1ctEVb5Fw6Y9mGbFuWeFGdUvhK/wB2rKfBPISyYVYcbqVJZffkyXZc6sFHUh4ksm2wpxSEOps4aUoIiRubIIfIWshx6m0epyaSuLCr0db1PM3kqczqI6pRNOpJJEi+22q6olHsZSK0B2R8cOTY9MRMpy4DOI4LsiluG6Ti7yY+fNp1KUpuKzVqisUrYPYMBpaDrFi0vDNLgqb6VLgUOFPm5x664snmTNDbRGlZuOrJpR5bC2MuUEqahY5iVmuyqXHbQ10VKFGl50m5SiWy28lZRVJJebMnbt+3ZIysBCmAAAAAAAAAAAAAAAAAAAAAAAAAAGgxAXTqvSaRstKcOdLT/wAKLYaCPuKeUjvAN+AAPGaiZxP9UdKcLImoUZxlXdNtK1/2CFYe2LSf/MPd/cXswszeQYojlVdctPhpK8ljo5ul3GiN9VvwWAl6+CAAAAAAAAAAAAAAAAABE66PZpWPNvSmh5968OOHK73pnz9n0uxMal/ZpR/OfSnQ3Xw4Ycp6m8/adHsSrZSkpSalGRJIrTM8hERD0ODCDF0tS+uMcojfFLyWmDbh7SrNmiaWpfXGOURvheS0wOHtKs2aJpal9cY5RG+F5LTA4e0qzZomlqX1xjlEb4XktMDh7SrNmiaWpfXGOURvheS0wOHtKs2aJpal9cY5RG+F5LTA4e0qzZomlqX1xjlEb4XktMDh7SrNmikaDUoD+sfFU1clkkR49Np7KzcTYdxDslZFl2jkkJ15aUXE9WOZXaWpfXGOURviLyWmCeHtKs2aKPTUKfUtai3lyWTi4dpaW2VG4m70qpOGpZllymlmMkv2hOvLSi4nqxzNdX9feEqNj+Jg51l556Qtlp2oNGg2G3JNmbI8tplwivGWwJ1oYsasbOaEcWL+XoOlaX1xjlEb4reS0wX4e0qzZomlaX1xjlEb4XktMDh7SrNmikdVFRp7eAqahyUyhRLlcFTiSMi6W7ZkM9wTry0ouLSP/WOZXaWpfXGOURviLyWmCeHtKs2aKS1k62sO4FozNRkkqoLkvEwxGirQajVdNRmpRnYkiIhMJoR9kVZrKaX2wjBqMSYyolfwNQMaU50m0wp8GpJYdUlLyWzf6NJQpJGfgtOuW2bNga8PZjIWM+LHiji9z0TStL64xyiN8ReS0wW4e0qzZomlqX1xjlEb4XktMDh7SrNmikKZUKdD1o1xBSWSYqlMgzCXnE3TdjuPR1lbbs3DbE68tKLi09mrHMr9LUvrjHKI3xF5LTBPD2lWbNE0tS+uMcojfC8lpgcPaVZs0TS1L64xyiN8LyWmBw9pVmzRNLUvrjHKI3wvJaYHD2lWbNFoZVMhv1hdTRiiRGNdwjjNOw80SEGR5tN9paySqzhcLKF5LTA4e0qxzRbWPJpzMuVIOrE8mSaDTHceaNtm4m6ZNEREoiV4SrTPKF5LTA4e0qxzRdMVvDzBVBJy2X26m8p+S0842pBmttDSkEnxDS3sHaF5LTA4e0qzZotVT8M4OpTFLbp8pLbVDOWqnME+hREUwlX0HeO0yTfsRlyBeS0wOHtKs2aLRYdw7EZwNRE1GYpyp0mlqREpjjzJkzKdimyvwbDUskrUhN5RkRGYXktMDh7SrHM2OGKBSWqPQV1Som5MplNRGYjvPM2Rlux0NPWXSI1LIiuEpRqsK3dMLyWmBw9pVjmZcLDeHacqMul1pcF1mGxTnnG3o6jfYikZM50nELTfReVYtJEeULyWmBw9pVjmizF03D71ci1iVU0yZEA1qgJccYImTdbzSySpKUuKI0meRSjK07dyxeS0wOHtKs2aLc6WpfXGOURvheS0wOHtKs2aJpal9cY5RG+F5LTA4e0qzZomlqX1xjlEb4XktMDh7SrNmiaWpfXGOURvheS0wOHtKs2aJpal9cY5RG+F5LTA4e0qzZomlqX1xjlEb4XktMDh7SrNmiaWpfXGOURvheS0wOHtKs2aJpal9cY5RG+F5LTA4e0qzZomlqX1xjlEb4XktMDh7SrNmiaWpfXGOURvheS0wOHtKs2aJpal9cY5RG+F5LTA4e0qzZomlqX1xjlEb4XktMDh7SrNmiaWpfXGOURvheS0wOHtKs2aJpal9cY5RG+F5LTA4e0qzZomlqX1xjlEb4XktMDh7SrNmiaWpfXGOURvheS0wOHtKs2aJpal9cY5RG+F5LTA4e0qzZomlqX1xjlEb4XktMDh7SrNmiaWpfXGOURvheS0wOHtKs2aJpWl9cY5RG+F5LTA4e0qzZooei6wMPz9YdQim5dUTJRIj6lIJH93Utb23kvKPIe3dE60KVYWU8Y4sUca40tS+uMcojfEXktMFuHtKs2aJpal9cY5RG+F5LTA4e0qzZovHMZzYaP9Q2BpaJDSm1MzW1rvpNJF0dRbJH+kEs8P5/laeynhCWEYRxxyZXsSqvSUpNSprBJSRmZ5xGwXwheS0wV4e0qxzReV6spsOr40reJZMhpKLVJj31pKw3lZLLT+K2gi+ETGeEOVELGePshHM9V0tS+uMcojfEXktME8PaVZs0TS1L64xyiN8LyWmBw9pVmzRNLUvrjHKI3wvJaYHD2lWbNE0tS+uMcojfC8lpgcPaVZs0TS1L64xyiN8LyWmBw9pVmzRNLUvrjHKI3wvJaYHD2lWbNE0tS+uMcojfC8lpgcPaVZs0TS1L64xyiN8LyWmBw9pVmzRNLUvrjHKI3wvJaYHD2lWbNE0tS+uMcojfC8lpgcPaVZs0TS1L64xyiN8LyWmBw9pVmzRNLUvrjHKI3wvJaYHD2lWbNE0tS+uMcojfC8lpgcPaVZs0Xey+w+i+y4l1Ftl5CiUVpbVpC0Iwj7Gc0kZY4owxIzXR7NKx5t6U0MN68OOHK7npnz9n0uxMal/ZpR/OfSnQ3Xw4Ycp6m8/adHsSrYyIysPKR7JD0OC6uiRfIo4pbwjVgveTUxOiRfIo4pbwasC8mpidEi+RRxS3g1YF5NTE6JF8ijilvBqwLyamJ0SL5FHFLeDVgXk1MTokXyKOKW8GrAvJqYnRIvkUcUt4NWBeTUxSGrqPHk/wCZakppB9Orky4o0llbikiGizuWRg1YGvNTFX9Ei+RRxS3g1YF5NTFIYAjx5NQxdUVtINT9beYTakrM3CZajJIvhbMNWBrzUtxMwNg+bXI1dlUiK9V4hEUeYpsr6btpp7h3bchnsbQYlYzR9rb9Ei+RRxS3g1YLXk1MTokXyKOKW8GrAvJqYpHVPGjqwDTjU0gzvysppI//AHboasDXmpiruiRfIo4pbwasC8mpi11ewlhqvwDp9ZprE2GaiXmnEFkUnYURlYZH7xhCEERmjH2xavGWHKYWrutUqDEaYZRTJDUVltCUpRcZVmyIiLYIyIMUCE8fZjbXDy4tQoFNn5ps+lxWH7bqf942lW53Q1YJvJqYth0SL5FHFLeDVgXk1MUhWY8eNrPw06TSLs2n1KIrglZahUd9P9RQasDXmpir+iRfIo4pbwasC8mpidEi+RRxS3g1YF5NTE6JF8ijilvBqwLyamJ0SL5FHFLeDVgXk1MTokXyKOKW8GrAvJqYnRIvkUcUt4NWBeTUxOiRfIo4pbwasC8mpidEi+RRxS3g1YF5NTE6JF8ijilvBqwLyamJ0SL5FHFLeDVgXk1MTokXyKOKW8GrAvJqYnRIvkUcUt4NWBeTUxOiRfIo4pbwasC8mpidEi+RRxS3g1YF5NTE6JF8ijilvBqwLyamJ0SL5FHFLeDVgXk1MTokXyKOKW8GrAvJqYnRIvkUcUt4NWBeTUxOiRfIo4pbwasC8mpidEi+RRxS3g1YF5NTE6JF8ijilvBqwLyamJ0SL5FHFLeDVgXk1MTokXyKOKW8GrAvJqYnRIvkUcUt4NWBeTUxOiRfIo4pbwasC8mpidEi+RRxS3g1YF5NTE6JF8ijilvBqwLyamJ0SL5FHFLeDVgXk1MTokXyKOKW8GrAvJqYnRIvkUcUt4NWBeTUxOiRfIo4pbwasC8mpidEi+RRxS3g1YF5NTFM4RoNGOTU6wUFkpsibKbJ+4V7NIdNBJLc8DKGKCNaNKm6JF8ijilvBqwTeTUxOiRfIo4pbwasC8mpi8Z1jstN68dXq7ic2b8ps0ERbKmWy/2iIQh/K888cUP55P7XOtGoxaTg+XcbQmRNsis8FNvznhnsbSCMTqwU15qYvuq/DrFNwfEzrCCfmWynbUlb85ZcLY8QkhigjXjDlVnRIvkUcUt4NWCbyamJ0SL5FHFLeDVgXk1MTokXyKOKW8GrAvJqYnRIvkUcUt4NWBeTUxOiRfIo4pbwasC8mpidEi+RRxS3g1YF5NTE6JF8ijilvBqwLyamJ0SL5FHFLeDVgXk1MTokXyKOKW8GrAvJqYnRIvkUcUt4NWBeTUxOiRfIo4pbwasC8mpidEi+RRxS3g1YF5NTE6JF8ijilvBqwLyamLsQ22grqEklOzYkrC/IJhBWMYx9qK10ezSsebelNDz714ccOV3fTPn7PpdiY1L+zSj+c+lOhuvhww5T1N5+06PYlWw9DggAAAAAAAOLriGm1uLOxCCNSjPaIitMBJ6pm1lq8ozyyscmtLnLt2b0x1ck7eVAVwCQ1ZmRU+tt/HbrtUSstwzkqV+ZRAK8AAAEhqk9ntIV5Qn3OUkOL/2gK8AAY1TSldNlpUVqVMuEZbpGkwGj1ZKUrVxhZSjtUdIgmZ+boAUoCQxp8zijBMvxam/HUf6L8CQVnGSkBXgAAAAAAAAAAAAAAAAAAAAAAAAAAAAAAAAAAAAAAAAADRYKy4fbXtrkS1H75ynAG9AAHjOtwiZ1oauZR5C0utk1bFl5Ectn4RWHK0n9kPd/cWZrCWrEuP6VhhkzOPGMjk2bRr4bh/stJ/KLKPWUIQhCUIIkoSRJSktgiLIRAh9AAAAAAAAAAAAAAAAAAETro9mlY829KaHn3rw44crvemfP2fS7ExqX9mlH859KdDdfDhhynqbz9p0exKth6HBAAAAAAAAaTHMzoWCq9LvXTYp0pZK3DJlRl+UB34UhHBwvR4RldONCjsmXdQ0lJ/mAbQBH4Jsi4lxnS9i5Um57ZbqJ0VpVvKtuF8ACwAAHxZ2IUe4RgJPVIX/1lhlW2unsOH760Eo/zgK0AAajGFQKm4TrNQM7OiwZDxe+hpRkXwmA+YMgHTsIUOAorFRKfFYUW4bbKUn+YBuAEfrHM2zwvIIsjOIIN5W4TpOM/wDqALAAAAAAAAAAAAAAAAAAAAAAAAAAAAAAAAAAAAAAAAAAAaPB53abJj7cadMaPl1rL8igG8AAHimv2U1AreCam6d1qHiBpTi9xObaUZfCSBWXlaT+yX3f3Ft9UcN2qVys4qlJtcdcU0yZ7SnDvrs/VTdSLKPVAQAAAAAAAAAAAAAAAAAACJ10ezSsebelNDz714ccOV3vTPn7PpdiY1L+zSj+c+lOhuvhww5T1N5+06PYlWw9DggAAAAAAAI/WsZvYUKkJ/eVybDpaS3USJCCe+pSsBYEVhWAACNkGVM1rxHT4LOIqW5GPuyac5nUW902ZDnFAVc6fBgRlyp0lqJFbK1x99aW20l3VKMiIBKnrRokozTQINQxEZHZnKdGUce3/qXjZYP4FmAKxDrHkIV0bCLEZJkdhz6m2hVm7djNSf6wCc1aVDWQ3q9w4UGi0uRDTT45MLcqDzTi0ZsrpqSUVxKVGWyVpglSHjDGEPLVMGSzaLwnaZKjTe8hSozp8UEM2j6w8JVWYVPbmHEqh/8A4ye25DlW7hNPpbUr9m0Bg61D6RhyPRS8Ov1CHTcnk3HiW/8AUNrAWIAAj9bPzeB5U0vCpsiFPI9wostp5X9BBgLAAAAAAAAAAAAAAAAAAAAAAAAAAAAAAAAAAAAAAAAAAAT8JejcVTITnBj1cimQ1bRvNoJt9v37qUL74CgAAH55/wBTFXjyDo0FhKnCi1lo5MlP7tDhspsat212WmZbQrDlaTR/iHu/uL2TV9RypWEafHNN11xvpD+7fe4Z2+8RkQszUQAAAAAAAAAAAAAAAAAAAInXR7NKx5t6U0PPvXhxw5Xe9M+fs+l2JjUv7NKP5z6U6G6+HDDlPU3n7To9iVbD0OCAAAAAAAA8LxBrY0xjeE5AgFNw7hKbLkTzbctkr6IwbL0pDZldNpkpJmkrby7DssBL3Fl5p9lt5lZLadSS21pykpKitIy98gQ5gMKsRp78FzRq2GamlJ9DkyWzdQ0tXBNV1JoUfBM9hRAJ6n6taP0lFRxA87iWrpO8mVUrq2mlf/x4pETDJbl1N79IwFclJJIkpKxJZCItgiAfFlahRbpGAk9Uh/8A1nhpPiQGWyPduJu2/kAVoDArWH6JXIZw6xBZnxj/AN2+glkR7qTPKk+6WUBMQ9XEiFiKlS2q1JkUGkrekRaPM/vCmn3GVMJNuSs87cShxViFmqzaMBbAACX1oSqXH1f1/SUluKw/BfYQ66dhZ11s0tJItlSjWZWEWUB3YAxVS8TYWg1GnyCfsabblpsNK23ybSa0LSoiMjy290spZDAUQAAAAAAAAAAAAAAAAAAAAAAAAAAAAAAAAAAAAAAAADCq9IiVWJ0eReQpCicYfbO6606nwXG1bSiAa5C8aRCzSmYlUQWRMknFRXDL9Nu44i39U/gAfHIOKqmWbmyWqXDPw2oJqckLLxc+skEj9lFvdAeG/wCo3RNMn4SozVyNBZqBSHGkWqUSLGkqcNJWrUezlymZisOVpN7Ie7+4v0VAlQ5cKPKhOoehvtpcjOtmSkKbURGlSTLaMhZm7wAAAAAAAAAAAAAAAAAAAROuj2aVjzb0poefevDjhyu96Z8/Z9LsTGpf2aUfzn0p0N18OGHKepvP2nR7Eq2HocEAAAAAAGg1gV5WH8E1ysoOx2FDecY+luGTf9MyAeY0KjRqRRsGR3kETcjClV6QqzwnX248l28f7SjBL0rVtJKVq9w0+RmZLpkQ7TyHkZSQIUYAAAAAAkNUh/8A17SU+Tz7fJyXEf2QFeAAAAAAPLMTnT8V646dhGfGbm0qjUuRUpsd1JLbVIk2R27yT20NqM0/rAk1YUioYZxBEos1s2XptAYclNmpK/n6c+qMlVqbSMzjvNpPLsJLcAepggAAGlrGJkUmXGRKhPdDkyWISZqTbNJPSVEhvgXr92+okmqzJ72UBugEfUNYZQHKo67Sn1UyjzWoEyahbRnfeJoyWhq28pJdISR2ZdwjAVapkRMhMZT7aZCytQyakksy3STbbtAJaNjmS7IjNKhoST9cl0VSr55ERkPLS6XB2VZkrU7VuyAqkSI60NrQ6hSHv3SiURkvJbwT28hW5AGnPEzTWJ5lIlG1Hjx4kaS3JccJN5chx1u5YqwsmZyZdsBuTfYSpaVOJJTab7hGorUpO3hK3CyGA0VQx7hOnqqKZdQbQqlIYcmkVqjSUk7GrLC4V7J4OxblAbk58EnGmzktE48RGyi+m1ZHsGkrcvwACp8FDyWFyGkvrVcQ0a0ks1EV66SbbTOw7QHeA6kzIipCoyX2zkpK1TJKSayLdNNtu2AkcO6wtJSYKJrLMFiVT3pzj6neChbMso1y1RJKxVttoCtfmw46UKffbaS5kbUtaUkr3rTygORyY6ScNTqCJkrXrVFwCMreFuZN0Bzvov3LxXyK8abcth5LbAH0AAAAAAAAAAAAAAAAAAflrETsfE+Mapi+Qi9Hi1tNNprychtopZNrJST/AE1LNRgtje6asiKNArVGRkj0ery48NJbCY7xpltJLuITJul3CBVYgAAAAAAAAAAAAAAAAAAAiddHs0rHm3pTQ8+9eHHDld70z5+z6XYmNS/s0o/nPpTobr4cMOU9TeftOj2JVsPQ4IAAAAAAILXxFlStUmI24xGpxMdLikpK08206hbneQkzAg0WsTG9Jo2qMobEhp2uTaM01AiNmlT2bkMXFvERZSbQ2hajVsZAS9AwTS1UnBtDpiyNK4cCMytJ7JKQ0klF3wQ3QAAAAAAkNVCbmDW2vJTqmjLs5Kg/sgK8AAAAAAeRYfWhv/UliNDp3XnqSg2iPZUj+62We9dUCVXHV03W3MW3wmqPRmo75+K9OkG6SffzccjP3yBCyAAABI4wh1KpvxGqXEkNVaFMjOxagsy6KholpN9wyvGldrJrbumm9aeSwsoCljy33ZcphcVxluOaCakLNFx4lpvGbd1Rq4J8E7xFlAeb1fCNWlzMRORafIarUiqMyqHU89djtkhhhGfWm+aTJBtrtSbZqV+UiWT/AJPnu1usM1Qp7jU+qtVGFLh9EJvNtZpTSVvOIOQ2bJtXTIlWGnwfCMgHfDw3XES4S1xFEhvFE+ouHeRkiutSEtu7Owo3E5NnKCGZg2hPxKrMhOISdKoEl9FEUk7bCmkl9STLa6Olw2k/omA41uivni6qVN+i6VhSqSzAjJ+bXeeS4+tbSkLPgJUTibVnkAaNrC+KKVR6hTnIblUmT8LxaU3LaWg0qmRWZCFodUtSVJIzeSaVbB5dsEuNSwhV1QK9GKkIeky4FKKIu60ZLOIRFIaNRnkWVh2EeQ8gDMn4eqjlLxXATTFyJlecNyjSzJKEtNrjttsJcUZkpjoi0Gqz4U2qMEFQwdVHIOJVlCJ+pyqvTpUGTwCcWiMiElbyVGfAuqZcPd74C7pVVTUelqQwtpqNJcjNurssezVhLWiw/BJd5GXbSYCGwzhCexMisVcp6ptPqcqoIltdETFdN5bppcU6SCkKJbbtxTalW25PBIjAYuHML1Wmy6PNqtGVKjxKTLiOtJzTq0PyJpPITmzVYd5tOVW1buWgO3CeFqzh9TC6zAVVGFUlqExHauP9FcS++65GsWZFcW282i/4PzeWwrAHTTtXVbRFp9JqSEyIFXpaIGJ1pctNBw1GuORKOxS7UOmyatxJAlW4HptZYpxy68gk1p1LcZ4yUS7WohG22q0rf3h3nbNq/YCFKAAAAAAAAAAAAAAAAAHbYdmyA/NGB4cWoarK/BQ42dXpNXXNfiXizxIJlll5Zo2bt69ae6QLRen6iJjlRwrUKs64Tjk+pvrNReKwhuMi330sXvhBEXpAIAAAAAAAAAAAAAAAAAABE66PZpWPNvSmh5968OOHK73pnz9n0uxMal/ZpR/OfSnQ3Xw4Ycp6m8/adHsSrVSbyTTaZWkZWkdh5dwx6HChHEwNDN9bl8uvfGd3ljnejiY1ZerA0M31qXy698LvLHOcTGrL1YGhm+tS+XXvhd5Y5ziY1ZerA0M31qXy698LvLHOcTGrL1YGhm+tS+XXvhd5Y5ziY1ZerB8coUdxCm3JMpbayNK0m+syMjKwyPKF3ljnOJjVl6sHiuE9ScBvGuI6bEmZvDlPkxGn2rh9LdRm0zExM/esJklOov8ABvKJJFui2qyvMkMz2vQzfWpfLr3xW7yxzteJjVl6sDQzfWpfLr3wu8sc5xMasvVgaGb61L5de+F3ljnOJjVl6sDQzfWpfLr3wu8sc5xMasvVgkq1jCjQ6w5QaUmq1+vskRvQKe4pSWb3g9IfcUhlr9pVvcC7yxznExqy9WDVTqHrsrDLpRpsDDDLiFE2g5EmoykmZZLXCJplJ91JKsC7hTHOjiI0S9WCI1N6tdaGi6ob2MpFHZbnvsFHYJMzOPsOKbkOKN7wbzidrwtkxaaXGzktNX2Qh/zDGs69Q9eFHZ6RR6vExKw0VrkR9t2JKURbNw0PZpau5akVu4UxztY7zGrJ1Wc1iLEVMjNSMV0SoRYS0JW5UaZKdmttXitPPx7qJLV341iFkW7thd5Y5yG8xqy9WCupjVJqsFmoU2qPTIUhN5mQzKUtCi7hkYXeWOc4mNWXqwZWhm+tS+XXvhd5Y5ziY1ZerA0M31qXy698LvLHOcTGrL1YInH+qkqvJj4jo9al0XE9LaWiPU0qN28yZKM2nEqMrU8I9vb2xaWXEzntdbkhD3QxMrVZh2OWCKVVFypS6jW4zFSqko5DhrekyGUKUtRme0ViSLYIisERkx8sUyW0ZYYsUuZWaGb61L5de+Iu8sc6/Exqy9WBoZvrUvl174XeWOc4mNWXqwNDN9al8uvfC7yxznExqy9WBoZvrUvl174XeWOc4mNWXqwNDN9al8uvfC7yxznExqy9WBoZvrUvl174XeWOc4mNWXqwNDN9al8uvfC7yxznExqy9WBoZvrUvl174XeWOc4mNWXqwdUXDcKK2puO/KbQta3VET7h2rdUa1qMzPZNSjMLvLHOjiY1ZerB26Gb61L5de+F3ljnTxMasvVgaGb61L5de+F3ljnOJjVl6sDQzfWpfLr3wu8sc5xMasvVgaGb61L5de+F3ljnOJjVl6sDQzfWpfLr3wu8sc5xMasvVgFRWiyFKlEXcfXvhd5Y5ziY1ZerA0M31qXy698LvLHOcTGrL1YGhm+tS+XXvhd5Y5ziY1ZerA0M31qXy698LvLHOcTGrL1YGhm+tS+XXvhd5Y5ziY1ZerA0M31qXy698LvLHOcTGrL1YGhm+tS+XXvhd5Y5ziY1ZerA0M31qXy698LvLHOcTGrL1YGhm+tS+XXvhd5Y5ziY1ZerA0M31qXy698LvLHOcTGrL1YGhm+tS+XXvhd5Y5ziY1ZerA0M31qXy698LvLHOcTGrL1YGhm+tS+XXvhd5Y5ziY1ZerA0M31qXy698LvLHOcTGrL1YGhm+tS+XXvhd5Y5ziY1ZerA0M31qXy698LvLHOcTGrL1YGhm+tS+XXvhd5Y5ziY1ZerA0M31qXy698LvLHOcTGrL1YGhm+tS+XXvhd5Y5ziY1ZerBpJExDkpyFRumVOSyq7IcKStuM0rbSt47SvF4qCUe6F3ljnOJjVl6sHhmD8BV7E+s3G1SpVQRS4UeUqn1Vhhxwulpdtz7aZBJvpJS2rylXbcu0LwhiYzTY441tgGi1XB1RqFKmxagihtWEl+HnlstqTZdURpIlKTcPKZFbkFYyY+WK8ttGHJLmepQodPnRkSodQkPx3CtQ63IWpJ94xF3ljnX4mNWXqwd2hm+tS+XXvhd5Y5ziY1ZerA0M31qXy698LvLHOcTGrL1YGhm+tS+XXvhd5Y5ziY1ZerA0M31qXy698LvLHOcTGrL1YGhm+tS+XXvhd5Y5ziY1ZerA0M31qXy698LvLHOcTGrL1YGhm+tS+XXvhd5Y5ziY1ZerA0M31qXy698LvLHOcTGrL1YGhm+tS+XXvhd5Y5ziY1ZerA0M31qXy698LvLHOcTGrL1YGhm+tS+XXvhd5Y5ziY1ZerA0M31qXy698LvLHOcTGrL1YGhm+tS+XXvhd5Y5ziY1ZerBlxYxR282TjjhWmd51ZrVl7pi8sMTGefWjjxQh7kdro9mlY829KaGG9eHHDldv0z5+z6XYmNS/s0o/nPpTobr4cMOU9TeftOj2JVsPQ4IAAAAAAACP1fGT0/GEv4ztdebM+5HjsMl/UAWAAAAISZVKvjSoSKTh+Sun4bhuKYq2IGTsekOpOxyLAVlJN3Ycf2jyIy2mQVdCw/RqDT0U+kRERIqDM7iCyqUeytajtUtattSjMzAbABjwadBgNuNw2EsNuuuSHEoKwlOvLNbiz7qlGZmAyAABBYkpTmDpT2MMPtGmBezuJ6K0Xzb7P+8mMtlkTIZLhKs/eJIyPhWGAuY0liVHakx3Eux30JcZdSdqVIWV5KiPcMjAdgDi6jONLbPYWk098rAEpqldzmriglsGxG6MZd2OtTJ/lQArQAAAAAAAAAAAAAAAAAAAAAAAAAAAAAAAAAAAAAAAAABP1qRKqVQLD8B1TKSQTtWmNnYpplXgtIPacdsPL8VOXcAZNVmUzC2Fps1DSGIFKiuvk0nImxpBqs99Rl3wEB/pspcqNq+XUpqf79XZr1SeWeyonrpIP4STe+ERCK80P4hhyvVhKibq8JVDkOV+moMo9t6sQUFwXW/jPoTtOtllOzwiyHlsAUTTrbrSHW1EttxJKQsspGkytIyAcgAAAAAAAAAAAAAAAAETro9mlY829KaHn3rw44crvemfP2fS7ExqX9mlH859KdDdfDhhynqbz9p0exKth6HBAAAAAAAASGrLhUusSNuRXKoviy1t/wBgBXgACQx9PnyV0/CVJeVHqNfNwpExvw4tPZIjlPpPaWZLS02fjKt2gFLS6XApVOjU2nsJjQYjaWY7CCsSlCSsIgGUAAAAAAPi0JWhSFkSkKIyUk8pGR7JGAj9Vt6NQptCUZmWHqjKpjJqyn0dCydjF+yw8hPwALEAAR+rGxmlVem9mVqpR0luIXIVJbLk30gLAAAAAAAAAAAAAAAAAAAAAAAAAAAAAAAAAAAAAAAAAB0TpjMKE/MfOxmO2p1w/wBFBGo/zANbhSC9HpRSZRf/ACFRUcyae2S3bDJHvNouoL3gHnv+ouqSXsPUrBdPV/8AJ4snNREkWyTCFpU4o+5eNBH3LQTB6RQKZGpUJNMildjQUMxmC3ENMIQn8hCsPbFpP/mX3f3FsxZk+KSlSTSoiNKisMj2DIwGkwaZt0lyCZmejZL8NBns5tpw833mzSA3gAAAAAAAAAAAAAAAACJ10ezSsebelNDz714ccOV3vTPn7PpdiY1L+zSj+c+lOhuvhww5T1N5+06PYlWw9DggAAAAAAAJDVVlwibnlalVnC3bF1OQZW/AArwABH4cT07WFiqpr4Wj0w6PFPxUpZKY9Z+suSm39UBYAAAAAAAAAJDA1iq9jRaP3Z1gkkZbF5MGMSgFeAAI/CVsfG2NIJZEKkwp6C/6mIltR/CuMYCwAAAAAAAAAAAAAAAAAAAAAAAAAAAAAAAAAAAAAAAAAaPGXzlJbhbU+VGiq/UW8k1l8KEmQDeAPGMO/wD+21+1auH85R8FMaOgnspOY5eS4otrJ84XwJBL1+N/Ey/pE/ZpFZfbFpP/AJl939xZAsyAGjwkecYqUgvAkVGUts91KF5q36sBvAAAAAAAAAAAAAAAAAETro9mlY829KaHn3rw44crvemfP2fS7ExqX9mlH859KdDdfDhhynqbz9p0exKth6HBAAAAAAAASOqjLgeIvackz3CLcJc59Vn5QFcAAJDBR3MT43YVkcTVWXbP0HafGNJ/kMvgAV4AAAAAAAOifOi0+DInS3CZiRW1vSHVZCS22k1KUfvEQCb1Yw5TeFUVGa2bU6uyH6vJaVsoOa4bjaD7qGbiPgAVYAAkKVwNamIS2naTS1H3DQ9NL+0ArwAAAAAAAAAAAAAAAAAAAAAAAAAAAAAAAAAAAAAAAAGhxZ/+G/8A2kb+0A69YmKm8K4Kq9eUZZyHHUccj+M+vgMp+FxRAJ3ULhVzD+rmAuURnUqwZ1OetXhGuTYpF7uk3dt7toEV5G/iZf0ifs0isvti1n/zL7v7iyBZk1+IKpoykSJaSvvkVyM1trfcO40gv1lmQDlQqboyjxIN68thskuL8Zw8q1ftKMzAZwAAAAAAAAAAAAAAAACJ10ezSsebelNDz714ccOV3vTPn7PpdiY1L+zSj+c+lOhuvhww5T1N5+06PYlWw9DggAAAAAAAJHVN/wCBU/6SX6Y8ArgABFvL0HrPQ+7wYGK4iIxOn4JVCBfW2gz2jdjuKu7twBaAAAAAAAA8qxvjnClaxCjCU2rxYOH4bhPYilyHSabkLaVeRTmlqsSq1ZEb9h5Elc2VHYS9DoOJMP1+Gcuh1CPUIqFZtTkZaXEpUXxTu7B++CGyAAEhB4OtesEf+9osBRdy5JlEf9YBXgAAAwqrWqXSWmXajJRGbkPtxWDXbw3nlXW20kVpmajAZoDCp9Zp9Qkzo0Vw1vU14o0xJpUm46baXSK0yK3gOJO0gGPTsTUmopjLhKdealOyWG3Usu3EuQ1qbeJxV2xuxbaklesvHsWgNqA6FTWkz24Rpczrja3krJtZtElCkpMlOkVwlcPIkztPLuAOcmQiPGdkLJSkMoU4pLaVLWZJK0yShJGpR5MhEVpgPsd5L7DbyCUlDqUrSS0mhREorSvJURKSe6RgPiJMdb7kdDqFPsklTzRKI1oJdt01J2SvXTstAdgAAAOhua0uc9DJLhOsIQ4tam1k2ZOGoiJLhlcUZXDtIjtLJbsgOapMdMhEZTqCkOJUtDJqK+pCDIlKJOyZEaitPugOwAAAAzJJGpR2EWUzPYIgHCPIYkMNvx3EvMOpJbTqDJSVJMrSUlRZDIwGFArUabUqnT20LS9SnGmpBqIiSo3mkvJNBkZ2ldXt7YDYAAAAAAAAAACdx2+qLRWpyEZ1cOZFeSyRkk1mTyUkkjPdvAPFtby65inFWHtXypq1zalKJ+ppbOyGwhpN/NIbIrXM2m1SlqPKe4CXqNHxNiSmy3oNfaYXHhutR3H2Em2pLTx3GJF200qaWorqrLDSe0CFlG/iZf0ifs0isvti1n/zL7v7iyFKSlJqUZEkitMzyERELMk3CUeIqs3U7D0JTlK0dbsSJGVKpFniIK1Le6dqtwBSAAAAAAAAAAAAAAAAAACJ10ezSsebelNDz714ccOV3vTPn7PpdiY1L+zSj+c+lOhuvhww5T1N5+06PYlWw9DggAAAAAAAJHVN/wCBU/6SX6Y8ArgEPrjrNZpOD0v0x9cJL82JFqNRaszkWG+6SHn0WkZEpNpFbtW2gPGq3geiyY+N002TVTxlhWc3LgEqW6u5HsQbL6lvqNKuCS3VKttLaBL0bV3rZnLwhS5+NIj8ONKb/u+Irl+K8lCzQSpObIzjOKu2nfK4eyStoB6dT6nTqjGTJp8pmZGV4LzDiXEH+0kzIEMkAAaiv4uw1h9tK6xUWYil/umFKvPOHuNsovOLPuJSYCccdxhjMszHbkYWwyv97KdK5VZSD2UtN5eiIV46/nNwk7ICMr2H4ErEs2KmoNYewVq7iNKNhpht9fSZTZvLfJLyXUXibOwlqQpV41WZTtBLqwfCoeD8dYeqlDqb02j6wmXWlRX2m2XEuMIJ5p+40hlO2aFWotK8A9yBDi66002px1aW205VLUZERF3TMBEU6qU2XrdllBlsyiOhNE8bDiHCStmYsrqrpndOx3YAXIAAAPO9YMLEjj7UzoTEllmpU1NNInnLzaClNKcWtBMqumtRWKURndQXvgldRKlHkyJMRJn0qHmylIurJKVOIJaSStSUpXkP4vwghHYbo82RiXGDxTptPbVU0ZtLSWkocIoUcjWnPMuGrKVlpHYA02D2qvGaw1GtlJjrqOIzmXiWi+g5MlTK3rCQXCtJSTsLuAlxwNKmSImBJUGXMl1GTHvYjW+46tJxuiKO88SzuJUUjNk2ZZT7pWgNzjSfiNvE78WiOuHMPDdRfgxiPgKmJdZSyq4fBNZW2JtBDXVCRMSlk8MPy3WTo1QXWFLU+taXSYT0VR5zKmTnr2RPC8K0shAl1TmKtKi1dx92eS4mFIUmITbkhBpnkmUpTiSQZGp61CLSynsWllAdC4Lzk7EMnpKqVWJ0Oju9Lf6QTTySIjeSomzSaUrUWaWpFhoI9oBaYOryH6dAgSoyoFRcbkLRDNx2SRsxXsznkvOJJZtuXkqbv2GZGCGvxXHracSNxYT0pMLEsNVOceYNRlDfZM3OkJPYaUuOtwiVtqSjbAaGe/iuZgl+W6qbEqcZ2BSTJk3EuqXGnIblykEWyTuWxVngluGCWwrECpMP4hpkKoPwITMGmdCkyVyXmiWcl43kqcvG586ViHFJVeSk7doBqozS5lWp02ZHeocwqNVYcOch2RKbQ81IbJtxpS7qnUmglOtpWm007WQgFDgStrhwSptUbJDxy0RIc1h2RJYnOLjk8pxo3yNxBESVXyM7qVEfCMEMvGUl9mt0JMtbrWG1qklU3GjWlOeJtPRieU3wktmd/bsvXbQGofhypeLY7dKfmrpkeiPSqe2p6SiOuaiWRs51SjI12bSVHYad1IJYUbpkmn4dYiqmSarJYdRiqO8p600HDcz5PpPgtuFKuJbu2fo8EBj4UXCjRqBDqS5EbDhUKOlhF+QhsqkR3ZTbqkmS0uISSSQgzsLhXSAfa1BlNIxpVYBzky4i6a5SXUHIJalNxmStu5DdveC5eI7dg9sB6wCAAAAAAAAABEa550KBq+nzpjymW4zjC0GkrVKXnkpSkiLZyqAfnHDGuOFE1uf5srdPddjIjvMXY6kuOMm8o3FPXciTPhGlRW5C94E4nurWKKRjqtILDTpy4cqIyzMkklSSabS/nnCWSiIyWkk3CLdV3AF3LrVLpa5Tk6QlklOJJtB5VrPNp4KEFapR9wiFYe2K8/8AmX3f3Fr1RapiQyKe0unUG204Sjskyi3HrP3bf6Ft49uzYFmakQhDaEttpJCEESUISVhERZCIiIB9AAAAAAAAAAAAAAAAAAETro9mlY829KaHn3rw44crvemfP2fS7ExqX9mlH859KdDdfDhhynqbz9p0exKtVXrp3LL1h3bdi3atHocKGVg3q/5OLx3PkDP58jfFY0zZoaS9X/JxeO58gPnyGKxpmzQ0l6v+Ti8dz5AfPkMVjTNmhpL1f8nF47nyA+fIYrGmbNDSXq/5OLx3PkB8+QxWNM2aGlM48qeKWKfBpkJxiFMrs5qmtTWlrNbCVpW664m8iwl5ppZIPaUZGENbIRhZckZubS8RwlLxpgqsvPKlxqbFplUj0qRQZEhxx+eU5xK88pC1rTebakJcJbaSM8tu2L/yzhq4+XE/Sl6veTi8dz5Ap8+RpisaZs0NLplxqrMiuxJcaE/GfQpt9lxS1IWhRWKSpJosMjIPnyGKxpmzQ0vJV6paO7rGepjyHXIK6M24uAdQlkypspKm0tKUmxxTaSLgoUoyIT82Q/8AlTNmhpesQYNRgQGKfDiwmIUZtLLEdK3LqW0FdSkiubBEQj58hisaZs0NKenasaBMknKVQ6fGlqyqkwnZEJ0z7q4xNKP4Q+fInFY0zZoaXSWriotfwlaqkVJbCE1aW6kveJ9DofPkRisaZs0NL6erqpu8GZWqnLa22lVSS0ky3FZhDRn3w+fIf/GmbNDS2NCwTAoLhvUqj06PKV4ctSnXZCv1n3UrdV8Kgxz5E4rGmbNDS3t6v+Ti8dz5AfPkRisaZs0NKUruEcTrrS8Q0SXBptReZKPVG323JUWWy1abeea+aUS27TurSojsOw7SCEZ8hGFlyRmzQ0pDVBq7qfRaNjSpzG6pOKESKKw7eaZgsO2mZNoSlV5Sr58Mz2DEx1uTES3WL+YzY/dDS9avV/ycXjufIEfPkMVjTNmhpeWa36NW8SYmwrhqpOxouH5qpDsy15aG3XGM2pLVpkVrqkXiQW1apRZUiYa2RWMLPHDFGbFy+x8k0Zmi6z8Is4SjU6I621NZrFOp1pF0NxBKQ7KuJK6lL5FdNWyo8m2ENbImN1jhijNi5fY9UvV/ycXjufIEfPkTisaZs0NJer/k4vHc+QHz5DFY0zZoaS9X/JxeO58gPnyGKxpmzQ0l6v8Ak4vHc+QHz5DFY0zZoaS9X/JxeO58gPnyGKxpmzQ0l6v+Ti8dz5AfPkMVjTNmhpcV6eWhSbkUrxGVpLctK39gPnyGKxpmzQ0sOh0qq0ajQaRFTHXGgMNxmVOOLNZoaSSUmoyQRW2FuB8+ROKxpmzQ0usqJUzxAddcTHXMTGOGwk3HCQ20pZOLukSMprUlNpnuZA+fIjFY0zZoaWyvV/ycXjufID58hisaZs0NJer/AJOLx3PkB8+QxWNM2aGkvV/ycXjufID58hisaZs0NLqKPV0yVyijxOkLQltTt9y00IM1JT4GwRrMPnyJxWNM2aGl23q/5OLx3PkB8+RGKxpmzQ0l6v8Ak4vHc+QHz5DFY0zZoaS9X/JxeO58gPnyGKxpmzQ0l6v+Ti8dz5AfPkMVjTNmhpdS49WckNSFx4an2CUTKzW5akl2EqzgbdgfPkMVjTNmhpdt6v8Ak4vHc+QHz5DFY0zZoaS9X/JxeO58gPnyGKxpmzQ0l6v+Ti8dz5AfPkMVjTNmhpL1f8nF47nyA+fIYrGmbNDSXq/5OLx3PkB8+QxWNM2aGkvV/wAnF47nyA+fIYrGmbNDSXq/5OLx3PkB8+QxWNM2aGkvV/ycXjufID58hisaZs0NJer/AJOLx3PkB8+QxWNM2aGkvV/ycXjufID58hisaZs0NJer/k4vHc+QHz5DFY0zZoaS9X/JxeO58gPnyGKxpmzQ0l6v+Ti8dz5AfPkMVjTNmhpeQf6k3qxKwtDo7qGyacdXUpnRzWpZRYCSzh5UlZwn0CYa3LiRNd8mtzFSwxg5ENysUePAiUhVDkS3JtPcUgnmo5ISm+o0GSlXTsMjK23ZyiPnyJ/+WP2zc2l06jsKVpdAkz4Ut2LSZnRUMkhZsdIXHjIbefSomjXcNy1CTIytu25bRMdbkxKy3fLrc2l6ZR8PuU+ZKfjQ4hyzWklynnXnXj+bT/vXEqV+UUhGfHH2NppbHFD+Zs0Kfe3N6v8Ak4vHc+QLfPkZ4rGmbNDSXq/5OLx3PkB8+QxWNM2aGkvV/wAnF47nyA+fIYrGmbNDSXq/5OLx3PkB8+QxWNM2aGkvV/ycXjufID58hisaZs0NJer/AJOLx3PkB8+QxWNM2aGkvV/ycXjufID58hisaZs0NJer/k4vHc+QHz5DFY0zZoaS9X/JxeO58gPnyGKxpmzQ0l6v+Ti8dz5AfPkMVjTNmhpL1f8AJxeO58gPnyGKxpmzQ0l6v+Ti8dz5AfPkMVjTNmhpL1f8nF47nyA+fIYrGmbNDSXq/wCTi8dz5AfPkMVjTNmhpL1f8nF47nyA+fIYrGmbNDSyoxyzb/vRNpdt2GjM02bXhEQvLj5WU+rj+XHiyo7XR7NKx5t6U0MN68OOHK7fpnz9n0uxMal/ZpR/OfSnQ3Xw4Ycp6m8/adHsSrYehwQAAAAAAee4gph44xi7RzlPxaPhhDb7siI4bTul3yvsGlZW/wAKzw7DyXllaR2ANZiDVTiqZKbquladVJsRxqSpl+mMxXpy4xpU03Kmsrzl0jQVl1N20itTZkBK+wriSLiKjNVFhtcdy8tmZDd/ex5LKrjzDheMhZWd3Z2DBDbgJBXtcbPdoDlvwTUAK8AAAAAAAGqxbP0dhWsz9uJBkvl77bSlF+YB1YJgaPwbQoFlhxafFZMu6hlKT/MA3QCAqT1UxzOm0unM08sMUx/o8yZUovTky5bR/OtR2jW0lKGfBU6Z238idgzAbCt4NYpeF5beCYrVIqbCkTYyIaEslIdjHfJh+4RG4h4iNtV7dAb/AA9XIddoUGsw7ejT2UPtpPwk3ytNCv0knwT7oDYAAAAAAAAAAAAAAAAAAAAAAAAAAAAAAAAAAAAAAAAh0xItd1l1tqU2T8Gl0dmmOsrypUuorW8+ky7rTTRfCAiG9RVNZxjSKfNeYfojKH5LaG2lNSJKI62rjE0yXmXEpvlasmyUsi4W6Cca7wKymj4gxJhZi1NMgOR51LZ+KyxPQs1sI3EIeZcNJbRKs2gQrI38TL+kT9mkVl9sWs/+Zfd/cWQLMgAAAAAAAAAAAAAAAAAAAETro9mlY829KaHn3rw44crvemfP2fS7ExqX9mlH859KdDdfDhhynqbz9p0exKth6HBAAAAAHXJfajx3ZDp3WmUKccUe0lJWmfeIBK6q4zpYOj1SSmybX3HaxLPbNU1WdbL9hk0ILuEArgEXHToLWc6wjgQMWRVSiR8UqjAuodMi3XY60Gf0YC0ASK/a41/+gc9NQArgAAAAAAASOtlSvV9VmEHYuaTMFBluzJDccvtQFahCUIShJWJSREktwiAT+sCty6NhOdKg/wDc3iREphbsuUsmGO8twlH3CAZ+GqFFoFBg0eLlZhMpavn4S1EVq3FfpLWZqV3TAbIBG4BLR1WxRhvYZp8/psJG0mNU09IukW0SX88RALIAAAAAAAAAAAAAAAAAAAAAAAAAAAAAAAAAAAAAAAEdq1/vceu108umKxLcaXusRVFCZ+C7Gt+EBtanwcWURXjMzW++TSv7ADVYNMp2LsY1dGVnpcelsnulAYI3PrpC0/AAqY38TL+kT9mkVl9sWs/+Zfd/cWQLMgAAAAAAAAAAAAAAAAAAAETro9mlY829KaHn3rw44crvemfP2fS7ExqX9mlH859KdDdfDhhynqbz9p0exKth6HBAAAAAE5rJfWxq+xI4gzJZU2USTLIZGplSbfgtAbejR0RqPBjtlYhmO02gi3EoIi/MA1+KcZ0LC5U1dYdNlqpzEQWXSK1CHHEqUSnDtK6jgWGratAavWFazMwlPR++j12O0Stu5LadjOF8JOgLABIP8DW3Ct/9xQZRJ/5Mxgz+1IBXgAAAAAAAkNZ3Co9KY2n63SkGW2d2Y25k4gCvAR+Oi6RXsGU9X7p2rnJcLaPokR91BcpdV8ADaV7GdColWo9JnOn0+uP9HgsoK8dpFaa15SuotsTbumA3gCPjfNa25yU5EyqFGcWW6tmW8gjP9lwBYAAAAAAAAAAAAAAAAAAAAAAAAAAAAAAAAAAAAAADHqUhcanSpCMq2WXHEkexahJmX5gGg1YRkRtXuHGUnao6fHdWeS01uoJxaj/WUozAdeN6qzR36dWHrDZp6Jz7pfotw3HP/TAd+rqkP0vBlMYlZZ77ZzKgrbOVLUch8z/5jhkA3kb+Jl/SJ+zSKy+2LWf/ADL7v7iyBZkAAAAAAAAAAAAAAAAAAAAiddHs0rHm3pTQ8+9eHHDld70z5+z6XYmNS/s0o/nPpTobr4cMOU9TeftOj2JVsPQ4IAAAAA0eOoDlQwVXoLRXnpFPlNtFurNlV3+lYAycLVBFRwzSKg2d5EuFHfSZbZONJV/tATmsWBDl1fCLU5lEiBJqL8GUw4VqFIlU+SmxRd27YAwIGD8YlVqPRqk81Lwth6T0+DU1uGcx8m21NxYr6DLwmDcNSnbeGSU5LbQHooCPrxkzrMwo7tyIlUjfkYe/9IBYAAAAAAAAjtZKjuYYR4+IaeR/sqUv+yAsQE1jqi1WdEp9QoyEO1iiTET4cd1ebQ+RIWy8wblh3M406oiUZZFWAIyrYaqUebQKvXHG38UVqvwekE1apqNGjJdeREjmZW3GySZqV8dRmZ7RES9YBCPpp9K1r1t9Pg06kwIaty+88++f9G7b8ACwAAAAAAAAAAAAAAAAAAAAAAAAAAAAAAAAAAAAAAHXKjokRno6/AeQptXvKKw/zgPIMIvOpLBtq1Ifl0io4ZmkRmRpl06xSCs2lf3d4y7gJaJht2r6AgynFKcxPhmLES64ZmS5MViVGkZVW5bZSTUA9JwRrHw9UodIpEiQuPiFbCWZMF5l5s0ymWvn2b60Ei+k0KOy9lIrQQr438TL+kT9mkVl9sWs/wDmX3f3FkCzIAAAAAAAAAAAAAAAAAAABE66PZpWPNvSmh5968OOHK73pnz9n0uxMal/ZpR/OfSnQ3Xw4Ycp6m8/adHsSrYehwQAAAAAMiMjIytI8hkAjdWKjhU2oYYdP5/Dc56Ggj2TiOn0iGv3sw6lPvpMBy1nEbdIpU4smj61THzP9FUpDKu+l0yAWAAAkMaFmcUYJmblTfime4UiBIP87ZAK8AAAAAAAEhj7h1LB7G2uuNL7vzUWQ5/ZAV4AAj8Unn8e4LiHlS25UJxl3WYuYL0sBXqUlKTUoySlJWqM8hERAI/VkS51PqeJnCO3Ec92ZHNWz0NsijROMyylf7QCxAAAAAAAAAAAAAAAAAAAAAAAAAAAAAAAAAAAAAAAB5hjbCNZpMuRiSiGmRT4s1mvyKUSVG+Upj5qUcazIZSYql30H8ciMvCMEpuuN0WCxAiqmqj4YmVJiqYNxRFUV2CcpwulRTeUSkNkV9S0ZwrqkmaTypsAeiUPCc5+qQq9WsQniDoaFHRyaZajx0Z5N1UgyaUsnXVNndJdpJIjOxOUEKeN/Ey/pE/ZpFZfbFrP/mX3f3FkCzIAAAAAAAAAAAAAAAAAAABE66PZpWPNvSmh5968OOHK73pnz9n0uxMal/ZpR/OfSnQ3Xw4Ycp6m8/adHsSrYehwQAAAAAARGKF/5axhT8WeBSaihFIxArYS3aszgyl9xDq1NKM9glluAO7WsZOYWZgl++qNTpkZgts1nOZcyfstmYCxAAEhrItQzhySWzHr9OMz3CdcNg/yPAK8AAAAAAAEhisydxzgmL4kifMs7jMJbNvfkkArwABH4iVmNZGEH15G32KnDSo8nzqm2X0J980ML7wD5rGnPyYsXCNOcNFVxKpUZTiPCjwU2HMk9y60dxJ+OpICrhxI0KGxDitk1GjNoZYaTkJKG0klKS94iAdwAAiMWLOBWdLVNyqM0VBw2ifhSs3HbWt00mp5hKkrUk1rQlZ3Tydy0BbgIDDa5M3FmITksTpaIdYzUaSmWpEdhtMRhZINnPIvJJSjMyuHsgO+iYukLg4fh0yCa3Kw3PcaVMlLczXRHCI844aVrXfNeTcAdS9Z7rlKalsQW2HtHSqi+mW/caJUJ02HGG3CSd9RrSeWwslh2ZQHBetRSSkXKat52AxFemRUJeU+tcplL5tMIS0vhIbcT4Zlarg5NkEuusY7xRJp1Weo0KPFRTKs3SulSHjUp1XSmGlXWibVdJSHjLKdpbVoIZkjGDlNn1BDNPckS11iDTHW1SlG3nJUZpWcaJaTJtCL2VJFlyq2TsAcanrJepapcOoRGY86FLYjSZKnXOgttSmFPMvuPE2a0JUbZt8JGRe3YA32Iay5GwwqoRVoNyQUdph1pROIJUt1DKVoWWRRJzt4j2wGqXjRaavVqBHJiPLpjCuipmvLQ++aY6XUvoQaDJxm1RpUpKjO1J2kAwKRj6ulFokafCZflyKK3WqpOS9cbQyk2yeUSM3aazSs1EksluS2zKAxZ+s+qSMMyptMhkzJfpMipQpKkvKajKabS4lElS2kovKQu1N0zI1Eae6ZKigYkrcuZLpkeGw5PpLMdVSUt5SG1PSEG4lppRNmfgWKNRpIstlh5QQ0NEr8+kTa650RD1NexOUJ1w3TJ1KphRmULQ3dNJpS44V7hFtmXdJZcfWpEduy+iLVSlSJLCnWkvLdabi522S6WbJsm1GyZZF2lanukRDBlVOqVvEeCJMmN0CLU2578fMvmp1CHYN5BOWJQROWKvcEzIj75krPCVVequHIE98v7w63Y8ZFYRuIM0LURbhqSZghqsQ4yqFNn1WNEp6JKaRTUVWQ449m77ZqdJTSCJC+HYwZkZ5AGrxBjpxuDVY1Qp60slSCq8ZcWStpxTKlk2bSnEpSppwjMjtSZl3gHVrDxJOmYVxzBp0RKo1Ip0mPNlLdNCzechm6eZSSVW5pDiTM1KK08hbADNxRjJMPCs5mgz4qsRU+M0tUdxRGpsjU2hRqTYrL84RFaWyYDWPV6q0PEOMqr0JqQiFHpsioNE+pNiUsLziWLUcJRJK0r123Y94lt38WswKjWiZiuOOpqMCCbjz6jYJUuO0aXTIyUTDaCXwiSXCV3TBDSyMSVSs1igPNxWSkwq7Np7dx1WYcJmC9ecv3cqbdoiPKVgJW2F665Wac4+8wUaVGkyIUplKs4gnYrqmlmhdiTNKjTaVpECG3AAABI4nw5Qabhqqrg09hhEl5mVMaQgibcWh5BmpSPBykWXJlAVjTTbTaWmkJbbQRJQhJESSIshERFsEA6Y38TL+kT9mkVl9sWs/+Zfd/cWQLMgAAAAAAAAAAAAAAAAAAAETro9mlY829KaHn3rw44crvemfP2fS7ExqX9mlH859KdDdfDhhynqbz9p0exKtVquoUqwzukZ2EVpnZuEPQ4UIY2v00jqcvkFjO9yRzPRw0a0vWNNI6nL5BYXuSOY4aNaXrGmkdTl8gsL3JHMcNGtL1jTSOpy+QWF7kjmOGjWl6xppHU5fILC9yRzHDRrS9Z0T5dPqEJ+DNpsiRDkoU1IYcjqUhaFlYpKiPaMgvckcxw0a0vWTFHwlAp9RgyZEmtVOLSbx0WBMRnGoqlpNu8SiQlx1SUKNCDcUo0pP4QvckcyeGjWk6yu00jqcvkFhe5I5kcNGtL1jTSOpy+QWF7kjmOGjWl6yT1n1VCsLJd6LKQceoU14lKZURFdns7Z++ELTJHMiO7xh/2lzq3TSOpy+QWF7kjmTwsa0nWfNNI6nL5BYXuSOY4aNaXrGmkdTl8gsL3JHMcNGtL1jTSOpy+QWF7kjmOGjWl6xppHU5fILC9yRzHDRrS9Y00jqcvkFhe5I5jho1peskpdVTI1qU62LKNFPo0p0k5lV4lyZLKCOzcNLKgvP49kcyOH/nFrS51bppHU5fILC9yRzJ4aNaXrGmkdTl8gsL3JHMcNGtL1mpxNEp2IKeiLJj1CO7HeRJhTY7SkPx5DR2odbUZKK0rTIyMjIyMyML3JHMcNGtJ1mNhykwaNKk1F5NSqtampSiVVJjNrptoypabShKG2myM7bqEllynaYXuSOY4aNaTrN/ppHU5fILC9yRzHDRrS9Y00jqcvkFhe5I5jho1pesaaR1OXyCwvckcxw0a0vWaioxIFSdPpzdTfhqeakKp6mz6ObjBpUi0rt+6SkEq5eumeyQXuSOY4aNaXrM6PMbYlypOaqLhyjQZsuNrU03cTdsaT8QlbKt0wvckcxw0a0vWdNLTTqZJqMiLDnE5VJPS5V5paizubQ1akvildbTkC8yRzHDRrS9ZiU6lUOnrpio0KeR0lElEMlNrOwpaiU7eycLKnJuBe5I5jho1pesnJmHWW50WNGh1lil0+I8cKRDSk3jkyZCnnkOE+Si2bhtqu7pGdgmE+PkirNYxhyyx/5bOg0uU3GYnVNVSar0lhlFacit5tElxorEKcSSVJvpTwTW3dt96yyLzJHMtw0a0vWgzHKHQV06oQCh1FDVSm6TeWlC76ZWcQ6S0GZHZdW0kyKywLzJHMcNGtL1mrxPRSkHGcp8KoOPyazAqFSeuGhRJioS2bifBIrEtpyJLLuBeZI5jho1pc7bopsBvpS201RMue6T06WTRG49Y3mUoWRoNu4lGQkpSVmzshe5I5jho1pes73ItJ/y6mgR4EuPAaZQxGSlhZm0TVmaUVu2g0kYXuSOY4aNaXrOp+DT5sxmZUo8+W6xfWyypkyaaceYOO6poiK+RKbUorDWZFaYXuSOY4aNaXrOqmUWiU9yM4mJUJC4tPOktZ9o1l0S8lRNqIkpJVlwitPLZs2he5I5jho1pes4tUKjoo79EW1VnqO9GXCRBdJZoaYcTduNmREvgpyJvKM0lsBe5I5jho1pOs5JpMBExU1o6uzMeabYmvtouqkpZtJs3iJF2+klGV9BJVZtheZI5jho1pOs5rpFDWzIaOHULsmpNVh2xC7TlMuNuIs/QvMJ4IXuSOY4aNaXrEOl0qGp5DDFTTT31uurpZtqOLekXjdsQab11alqUaL1209gL3JHMcNGtL1mMzh+lxnKc/HRUzkUVp1mjZ5tTiI6Hm81dukSc4SU2WXzM8myF5kjmOGjWl60GZS2U06WxmkTyp8OGiHFhk0u4ar15x5wthSzupIj2su6F7kjmOGjWl6zlPg0ic/Un34c/OVWEVOlXW1kWYLOeDkyK+eVlC9yRzHDRrS9ZjVGhYfqDbrcmDUDS9TypS7qHC/uxKJdn61pbIXuSOY4aNaXrONYoFCqiaq29GqbLFcaJqqsMIUhD9jeaJZ5DUlVyxJmkytIittC9yRzHDRrS9Zsasim1SivUeXCnHDebJpVxpaVkSbDSpKi2FJNJGQXuSOY4aNaXrMGTRaNKZrDcmNUnTrrLUeouG2pKlIZQbaTTcSlKDMlHbYQXuSOY4aNaXrNfielNPsPlBp9RMqtOiPVdbSDS6huK2lCFskvgWpNlu8k7bSvZDMIWmPkjmRNu8YQx60ucw/TZLc83akiqSIdMlm/h9MhpOdQlcY2Xb+ZJJKQZuLuJUV4tsI2mLkjmJd3jGGPHLnUFIOn0pl9qJDnXZMl+Y7faWozdkuG65ZbtXlZCC9yRzJ4aNaXrM7TSOpy+QWF7kjmOGjWl6xppHU5fILC9yRzHDRrS9Y00jqcvkFhe5I5jho1pes1WK6kmRhmqtJhy7yorxotYVZeJBmn8pBC0yRzIju0YQx60udsIdfbdiMOlElmTjaVEeYV8ZJGF5kjmTDdo1pes4x6wgn5J9Dl8Jaf9wryaRWFp/Mf4jmaT7tHFD5pfZWyxd+mkdTl8gsWvckczPho1pesaaR1OXyCwvckcxw0a0vWNNI6nL5BYXuSOY4aNaXrGmkdTl8gsL3JHMcNGtL1jTSOpy+QWF7kjmOGjWl6xppHU5fILC9yRzHDRrS9Y00jqcvkFhe5I5jho1pesaaR1OXyCwvckcxw0a0vWNNI6nL5BYXuSOY4aNaXrGmkdTl8gsL3JHMcNGtL1jTSOpy+QWF7kjmOGjWl6xppHU5fILC9yRzHDRrS9Y00jqcvkFhe5I5jho1pesaaR1OXyCwvckcxw0a0vWNNI6nL5BYXuSOY4aNaXrMyLJKQ1nCbcay2XXUmhWTuGLyzY2NpJqxxY4R9yO10ezSsebelNDDevDjhyu36Z8/Z9LsTGpf2aUfzn0p0N18OGHKepvP2nR7Eq2HocEAAAAAAAAAAABIa2y/+uq0vyLbb/IvIc/sAK8jtK0AAAAAAAEhTPn9ated2SiUmnRy7huPSnVd8jSArwAAAAAAAAAAAAAAAAAAAAAAAAAAAAAAAAAAAAAAAAAAAAAAAdM1nPw32NnOtrRZ+skyAa/CL2ewvSnLbT6K0kz7qUEk/zAM6N/Ey/pE/ZpFZfbFrP/mX3f3FkCzIAAAAAAAAAAAAAAAAAAABE66PZpWPNvSmh5968OOHK73pnz9n0uxMal/ZpR/OfSnQ3Xw4Ycp6m8/adHsSrYehwQAAAAAAAAAAAExrQZz2rjEzXjUyV3NhlRgKCnvZ+BGf8q0he54SSMB3gAAAAACPwsRrx/jV621JLpzBfsRL5l9aAsAAAAAAAAAAAAAAAAAAAAAAAAAAAAAAAAAAAAAAAAAAAAAAAAAGjwXwKGUbbiSJUezcJuQsk/0bAG0jfxMv6RP2aRWX2xaz/wCZfd/cWQLMgAAAAAAAAAAAAAAAAAAAETro9mlY829KaHn3rw44crvemfP2fS7ExqX9mlH859KdDdfDhhynqbz9p0exKth6HBAAAAAAAAAAAAaXGzRu4NrzRFaa6dLSRbOU2FkA54Pez2EqI8ey5Air4zKTAbcAAAAAASGCCv4ixu8fhaYba+BunRDL+uArwAAAAAAAAAAAAAAAAAAAAAAAAAAAAAAAAAAAAAAAAAAAAAAAAGiw2WanV2Iey3PN0vekMtu/nMwG1jfxMv6RP2aRWX2xaz/5l939xZAsyAAAAAAAAAAAAAAAAAAAAROuj2aVjzb0poefevDjhyu96Z8/Z9LsTGpf2aUfzn0p0N18OGHKepvP2nR7Eq2HocEAAAAAAAAAAABj1KKUunSop7Ehlxo/20mn/aA0GrCUcnV1ht5XhaOjIWW4pDZIMvgNICnAAAAAAEhgngYjxuyfhaXbe+BynRSL+oArwAAAAAAAAAAAAAAAAAAAAAAAAAAAAAAAAAAAAAAAAAAAAAAAAGiifMYzqLe1Mhx5Be+0txpX5DSA2sb+Jl/SJ+zSKy+2LWf/ADL7v7iyBZkAAAAAAAAAAAAAAAAAAAAiddHs0rHm3pTQ8+9eHHDld70z5+z6XYmNS/s0o/nPpTobr4cMOU9TeftOj2JVsPQ4IAAAAAAAAAAADGjVOmynnWIstl95izPtNOJWpFuxfSkzNOxtgJnVPajBMeMezDlT41m4TM15CS+BJEArwAAAAABD0WoQqdjTHkma8iNCjnTpD77iiQhBHDsUajPJ8QBv8O4ywriRLx0KqR6gcc7r6GVka0H+kjIoiPaOwBuQAAAAAAAAAAAAAAAAAAAAAAAAAAAAAAAAAAAAAAAAAAAAAAAaKq/3fFNFlbCZCJMJZ91SUvILvsmA5U7E2H5NXl09ioMOTM4VjBLK8d1CSO7u2GW0Kw9sWk8f4h7v7i3YszAAAAAAAAAAAAAAAAAAAAROuj2aVjzb0poefevDjhyu96Z8/Z9LsTGpf2aUfzn0p0N18OGHKepvP2nR7Eq2HocEAAAAAAAAAAHnGsqdVq3iKkavKPKcg6UbcnV+cyd11qmtHcNDaviqfWdy3a+EEsat4GoGBZdHxThpnRqILsSl1KKzYTL8GS/mVqdKy8t1Lj6V31KM+CAotWJWUOomX7s6zVTbLcT050gQrgAAAAAB+ecRLdxLrxdwk4oyw7VJqF1VCFKQcg6VBQ4lo1JMlXUuqy2fG94EtzivC0PVpiGh4tp844+HjqWarKJRqdebTNSaHVJfO8660o0pUpCzVdUklJ2wHtEOXGmRGZcVwnY0ltLrDqdhSFkSkqL3yMEO0AAAAAAatyvNnWzo8RlUmUy229NUkyS2w26aiRfUeytdxRpSRbBWnZktDaAI+o6w1QXKo87SXlUujzWoEyYhxs133ktGS0M23lJLpCSPLe3CAVTk6E2+iO5IbRIcsuMqWklqt2LEmdpgNG9rBweyt5DlSaSuPORS3UmeUpThJMk/q8PKrwSy5chgN2U6CcgoxSGjkmVpM303zKy227bbsZQHE6pTCcU2ctknEpUtSM4i8SUHYpRlbsJPZMB2x5EeSyl+O6h5lZWodbUSkqLuKK0jAdZVGnmt1BSmb8cjU+nOJtQlPhGsreCRbdoDVUzEiqhhyRXWMw7GNtyRAJpw13mkt3kZ07OCsz8JJW2AMqi1tmfQ6dUZCm47k2IzMW0aysQTqEqPKdmQjXZaAy2qjT3WnXWpLTjTBml5xK0mlBpymSjI7E2d0A0lTujdK6Uz0a2zP5xObttssvW2bIDvbcbcQlxtRLbWRKQtJ2kZHlIyMgHQmpU5anUplMqUwRqeSTiTNBFkM1ZeDZ3QBFSpy46JKJTKo7lpIeJxJoUaSMzsVbYdhJPvAOJ1WmFFRMOYwURwyS3INxGbUZnYREu26eUBlAAAAAAAAAAAAAAAAAI3Wu+/Hwuh6MtTUxMtgoryDsUhajNNpH+qZl8IDV1nV9Fh0qdJoqzZnQWk3UuqNaFE02ly1JqMzaWS03kqSZZdnIKwj/MWk0P4h7v7XVFnoqNIhTkKJRSWG3bxbFqkkZ/lFmbMAAAAAAAAAAAAAAAAAAABE66PZpWPNvSmh5968OOHK73pnz9n0uxMal/ZpR/OfSnQ3Xw4Ycp6m8/adHsSrYehwXzOI8Yu+GNOKJnEeMXfDGYomcR4xd8MZiiZxHjF3wxmKJnEeMXfDGYomcR4xd8MZiiZxHjF3wxmKJnEeMXfDGYovE6dWSw7/qAxA/iGaZUufEYiUyoSFJJplTx9IbjKWdhIJSku3Ldm7YBiWmtWosPYZjUmIpMmdXJkViCy2pJqWTTyZDqk5bLEtMqO3Y2AQ2urymSqVg6mxZ5E1UFpXJmtGZGaH5TipDqDMvFW6ZBjTiio84jxi74YzFEziPGLvhjMUTOI8Yu+GMxRM4jxi74YzFEziPGLvhjMUXj+teBBwhXsKY8gx83T6TUZJV3MkajJqqZHX1FsnwzO3umQGKLE1s1ql42iNwKS83UaNANlbkppRLZfqc5SY8CM2osi1IS8p5yzweDbsgQXmqleawVGp7jl9dJkTKZeM8pphSnGGz+FtCQxmKKvziPGLvhjMUTOI8Yu+GMxRM4jxi74YzFEziPGLvhjMUTOI8Yu+GMxReZ4lwjWHaviqTDaedl1lqKuhT2XybTDkss5k1L4aVJuKSldtirybU7pGxmKL0GHMfW/IjvsLbTHzaW5ajbuSLyCNSm0pUpRXVcE7xF3AxmKLzqsYSqkqXiJyLT3mqzJqjMuh1XPpSw0SGWEZ9SScMuAba7Um2alBjMUWTVsN1pymYuphRDl1CuSlvUuq3myQ0hxttLBrWaicb6KpFpERbRGnKYYzFFwm4bqZOzzOlJkGWIolTNxCWPn4aG2ULUi1RcNJtmaknZ3LQxmKL7/AJbrWgnKN0Q9LLrPTkVy83cJo5xSSfv3s5fSx81m7P0fAyhjMUXOHg6Uhqhm5Tm0vR8SVGoTFGbVqYr65qm1qO3hErOtcEu5aWQMZii3uEaJMptMrkVRFDVLqdQkQrppNKWpDhm0tJJOxJH4VgYzFFoabhyqlTsIU86d0WVQlEqrzTU0aH0piuMvIQq8anelOLJZ3i7qsoYzFFvcNUiXA1bxKQ6wlqoN03Muxkmj99mrpptSd229t2hjMUUcnCGKUYJqdAlwUz5U2lxkRZ19knE3EtpXT3SvERE0ZGaFI4Ki2eFlUxmKLZYrwhVpVVq71LjE3Bd0I8bTKmEdK6DJkLktJSu1F8m1N2ZxN1VhJPJsMZii6pmEp5VWBW4aaibBTHZFSiOHCJ81riJjtSGWLuY4F26ojK8dt4u6xmKKogYfVFwXNpFMffhSZbUw4rspbZusPSjWpKrGeAkkrXeSlPg7AYzFFqW01aLhBiLT8MpRV4UaPGcbeKMtBpStsnyZVnCzthJNxBKNJKMivWGBiinpNJlw5kAp1OWtqTi1E6IwvMEa2lUt0lLJDariVEttRmk7Le7aBiiy5+Eas8dSqMWO9CkO1F2ZRYaERX2m70JEZZy2HVk3ckKSozJJ3k222kZmBii9Kp7knoEbpubRNzSOkoaO1snbpXyRblu3rbAxmKLIziPGLvhjMUTOI8Yu+GMxRM4jxi74YzFEziPGLvhjMUTOI8Yu+GMxRM4jxi74YzFEziPGLvhjMUTOI8Yu+GMxRM4jxi74YzFEziPGLvhjMUTOI8Yu+GMxRM4jxi74YzFFN6wqWuq4Rnx49ipTaUyI6SPKa2VEsiLumRWBjMUWlbxhT8QUM4sB9KptUuNzEEeWM0lpHS3HfFJCbSTbsmZWCsPbFeaP8S+7+4s/VfKSeHFxjLNpjSXSYbM8pMOmT7P9B0hZTFFX5xHjF3wxmKJnEeMXfDGYomcR4xd8MZiiZxHjF3wxmKJnEeMXfDGYomcR4xd8MZiiZxHjF3wxmKJnEeMXfDGYomcR4xd8MZiiZxHjF3wxmKJnEeMXfDGYomcR4xd8MZiiZxHjF3wxmKJnEeMXfDGYovpGR5SO33gQiddHs0rHm3pTQ8+9eHHDld70z5+z6XYmNS/s0o/nPpTobr4cMOU9TeftOj2JVqpKVJNKiJSVFYZHlIyMehwoRxMPQlG6hH5JG8M7qWiDbirWtNniaEo3UI/JI3gupaIHFWtabPE0JRuoR+SRvBdS0QOKta02eJoSjdQj8kjeC6logcVa1ps8TQlG6hH5JG8F1LRA4q1rTZ4mhKN1CPySN4LqWiBxVrWmzxNCUbqEfkkbwXUtEDirWtNniaEo3UI/JI3gupaIHFWtabPFDzsL4bqGsmpUefTY8in1KgR1vR1NpJNrEt1JGVlhpV874RZRaEkIeyCs1tPN7YxiysM6kNWeHJHSoNHbdlEoltPy1KkqbNOxm86arnwZRMYY1ITRhHHD2q7QlG6jH5JG8KXUtEGvFWtabPE0JRuoR+SRvBdS0QOKta02eJoSjdQj8kjeC6logcVa1ps8TQlG6hH5JG8F1LRA4q1rTZ4mhKN1CPySN4LqWiBxVrWmzxNCUbqEfkkbwXUtEDirWtNni+LoNDcQptynRloWVikKZbMjI9oyMhN3LRAjvNpH+NabPFpm9WOr9urNVVmhRWZrKjcbU0jNt3zSab5soMmlKsPZNNotGWEfazlnml9kYwa3VvSaW7TKsbkNhdlbqhJM20HkKWsiIsmwQrdy0QaQ3m0h7Jps6s0JRuoR+SRvCLqWiBxVrWmzxNCUbqEfkkbwXUtEDirWtNniaEo3UI/JI3gupaIHFWtabPE0JRuoR+SRvBdS0QOKta02eJoSjdQj8kjeC6logcVa1ps8TQlG6hH5JG8F1LRA4q1rTZ4mhKN1CPySN4LqWiBxVrWmzxNCUbqEfkkbwXUtEDirWtNniaEo3UI/JI3gupaIHFWtabPE0JRuoR+SRvBdS0QOKta02eJoSjdQj8kjeC6logcVa1ps8TQlG6hH5JG8F1LRA4q1rTZ4mhKN1CPySN4LqWiBxVrWmzxNCUbqEfkkbwXUtEDirWtNniaEo3UI/JI3gupaIHFWtabPE0JRuoR+SRvBdS0QOKta02eJoSjdQj8kjeC6logcVa1ps8TQlG6hH5JG8F1LRA4q1rTZ4mhKN1CPySN4LqWiBxVrWmzxNCUbqEfkkbwXUtEDirWtNni6JOF8OSXIzr1NjrXEdz8c82krrlxTd7JZbwXFFlE3ctEDibStNnd+hKN1CPySN4RdS0QOKta02eJoSjdQj8kjeC6logcVa1ps8TQlG6hH5JG8F1LRA4q1rTZ4mhKN1CPySN4LqWiBxVrWmzxNCUbqEfkkbwXUtEDirWtNniaEo3UI/JI3gupaIHFWtabPE0JRuoR+SRvBdS0QOKta02eJoSjdQj8kjeC6logcVa1ps8TQlG6hH5JG8F1LRA4q1rTZ4mhKN1CPySN4LqWiBxVrWmzxNCUbqEfkkbwXUtEDirWtNniaEo3UI/JI3gupaIHFWtabPE0JRuoR+SRvBdS0QOKta02eJoSjdQj8kjeC6logcVa1ps8TQlG6jH5JG8JupaIHFWtabPFp3sC4PnSJXSaPFMyWRXkNk2oyNtJmRm3dMyPcEQlh/P8ACZ7WbFCOOP8AMKcsXXT6NSGMV1SL0Jgm3o8WS0jNIsK7fZXYVn6CRN3LRBEN5tK02dvNCUbqEfkkbwi6logcVa1ps8TQlG6hH5JG8F1LRA4q1rTZ4mhKN1CPySN4LqWiBxVrWmzxNCUbqEfkkbwXUtEDirWtNniaEo3UI/JI3gupaIHFWtabPE0JRuoR+SRvBdS0QOKta02eJoSjdQj8kjeC6logcVa1ps8TQlG6hH5JG8F1LRA4q1rTZ4mhKN1CPySN4LqWiBxVrWmzxNCUbqEfkkbwXUtEDirWtNniaEo3UI/JI3gupaIHFWtabPE0JRuoR+SRvBdS0QOKta02eJoSjdQj8kjeC6logcVa1ps8TQlG6hH5JG8F1LRA4q1rTZ4smPGjRm83HaQy3bbcbSSStPbsIXhLCHsZTzzTRxzRxxRuuj2aVjzb0poYb14ccOV3PTPn7PpdiY1L+zSj+c+lOhuvhww5T1N5+06PYlWw9DggAAAAAAAAAAkH+Brchns52gyE+9cmMn/aAV4AAAAAAAAAAAJDVRw8GtyuuzajKt7j099af6JkArwAAAAAAAAAAAAAAAAAAAAAAAAAAAAAAAAAAAAAAAAAAAAAAAY8b+Jl/SJ+zSKy+2LWf/Mvu/uLVSizONKe5tS4Ulkz7rTjbifyKULMm9AAAAAAAAAAAAAAAAAAABE66PZpWPNvSmh5968OOHK73pnz9n0uxMal/ZpR/OfSnQ3Xw4Ycp6m8/adHsSrYehwQAAAAAAAAAASFZ+Z1oYYdPwZNPqkb9slRXklxUKAV4AAAAAAAAAA6KhJ6LAkyT2GGlucRJq/2AJ7VbGKNq5w2341Pju/C6gnP7QCoAAAAAAAAAAAAAAAAAAAAAAAAAAAAAAAAAAAAAAAAAAAAAAABjxv4mX9In7NIrL7YtZ/8y+7+4tViD5usYfk7ktxg/wDnR3C/OkWZN6AAAAAAAAAAAAAAAAAAACJ10ezSsebelNDz714ccOV3vTPn7PpdiY1L+zSj+c+lOhuvhww5T1N5+06PYlWw9DggAAAAAAAAAAj8df3fEGC6j5KrKiqP9GZDfb/rEkBYAAAAAAAAAADTY0WpGDq6tORSadLMj7pMLMBzwi2lvClFbTkSiBGSku4TKSAbYAAAAAAAAAAAAAAAAAAAAAAAAAAAAAAAAAAAAAAAAAAAAAAAGPG/iZf0ifs0isvti1n/AMy+7+4tXi3gxqe/5Cow1W9xbpNH+RwWZN4AAAAAAAAAAAAAAAAAAACJ10ezSsebelNDz714ccOV3vTPn7PpdiY1L+zSj+c+lOhuvhww5T1N5+06PYlWw9DggAAAAAAAAAAj9ap5jCrdR2DpVRp0639Fma1f/oGogFgAAAAAAAAAAJ7WI7mdX+JXbbtylTVXi2rI6wG0oTWZolPZsu5uMyi6W1dbIrAGaAAAAAAAAAAAAAAAAAAAAAAAAAAAAAAAAAAAAAAAAAAAAAAADHjfxMv6RP2aRWX2xaz/AOZfd/cWqxvkw1KcIrTZWw6X/LfQr/YLMm9AAAAAAAAAAAAAAAAAAABE66PZpWPNvSmh5968OOHK73pnz9n0uxMal/ZpR/OfSnQ3Xw4Ycp6m8/adHsSrYehwQAAAAAAAAAATusaAqfgLEMVBWurp8k2vpENKUg+MkgG0oU9FRolPqCDtRMjMyEn3HWyWX5wGcAAAAAAAAAktbLlzVviEvKw1sctY1/bAVTLebZbb8RJJ7xWAOYAAAAAAn69iqZSHXbaFOmRWs3ZLjqi3FqcMkkhKXH23DVeMk2XdkBQJMzIjMrDMspHtd4BH1HWEuCuqvO0l1dMo81qBLlodQazU8loyWhnIakl0hJGVt7cIwFS5UIDUlEZ2S0iS5+7YUtJLVbsWJM7TAaN7WFg9lb6HKi0lceeilupM8pSnCSZJ/V4eVWwWXcAbwqhAOSUQpLRyjK0mL6c4ZWW23bbdjKA69L0knFNdNYzqEqcWjOovEhB2LUZW7CTKwz2gHfGkxpTCH4zqH2HCtQ62oloUWxkUm0jAdRVOmm482Utk3I5GqQjOItbSnwjWVvBItu0Bh4Zrem6YmptqYVDknfhKYWbhmyZEac5kIkr3UlsAMtuq0txTyW5jC1RyM30pcQZtkWQzXYfBs7oDW1rE7UOJTZcA2pzE+oRoJuIcI0EmQ5m1LSpF4jNJ7QDsoWIG6zKnqiOR3YEN1UUltuX3c80o0u30kV1KbS4OXLsgM3TFIvrR06PfbQbq051FqUJO6pZlbkSR5DMB2Mz4L6WVMyGnUyEmtg0LSonEp2TRYfCIrdoBxVU6ak2SVLZI5CjbjkbiCzi0nYpKMvCMjyGRAPqqjT0yiiKktJlq8GOa0k4eS3Ii29sANPhrFkepYbh1eoqYp6pSnUZtTpEi1p1bdiVLu22ki0BulToSZSIipDZS3EmtuOa0k4pJbKiRbeMu6A+Sp0SKVsh0myJC3TM9pDRWrUfcSWyA+wpXSorcjNOMZwrc08m44n9ZO0YD5PmsQIEmdIMyYitLfeNJXjuNpNSrCLZOwgHONJakRmpLR/NPIS4gzycFRXitt7hgPrLzL7KHmVpdZcSS23EGSkqSorSUkyyGRkA+KkMpfQwpZE64SlNoP4xIsvWe9aQDsAAAAAAABjxv4mX9In7NIrL7YtZ/8y+7+4tdjNN7CdW/Qiur4iTV/sFmTbMKvMtq8ZJH3yAcwAAAAAAAAAAAAAAAAABE66PZpWPNvSmh5968OOHK73pnz9n0uxMal/ZpR/OfSnQ3Xw4Ycp6m8/adHsSrYehwQAAAAAAAAAAcJDCH2HGHMqHUKQsu4orDAS2qh9x3V3Q0O/vYsfobhbioi1RzL4DaAVgAAAAAAAACP1sETmCnox/+7mU+Pys5lICwAAAAAAABp34c2diFpUhq5SqcgnY5maTz8pdpXrpGZkllGxbsqVb8UBnx5Uh2XKYciOMtMGgmZKjQaHyUm8o0ElRqK4fBO8RdwB5xWMHViXMxC5GprzNYlVNqVQ6wT6EstEhlhGeUknDPgG2vgm2Zq+G0EsqrYYri6Zi6lJhqlT69KW9TKpeQSGkONtoZNazUTiDiKRaRJLaK7lMEOM3DVYJ2eZ0spBliKJVDcSTPz8RDbKFKRaouGk2zNSVWdy20B9PDFd0E7ROhq0o5WdIIrlrdwmznFKJ+9ezmcSz81cs2cngZQS5w8Gz0M0M3KchLsbElQqMszNozTGkKmqbcM7eFezrXBLLsWlkyBvMJUGfTqbXIq09DXMqdQkQzSaTJLchwzaWkkmZJt8KzdBDRU3DVZKnYQpp044snD6iVVZhqbND6URXGXUNqJRqc6U4slneIt1XCAbih4dqzGrBigpsp1XOlnFvEZfNSFMmi9ebtLgqPZSAxEprLGEW41PwyTVWgxY8c23yjLQaUrbJ5LJk585YhKnEXjSSlJTblAa2LhnEJlJLoLqEPYlhVVs3FR0n0ZKGc64aWlElKiU0q8my33wSqMFUiVTI1UTJjlHVKqk2S0krh3mXXjU0rgGeynaPKQITlHwZUGGcLZ+nIS7ArFSmT1GbRmhmQUw2lmZGd68p1rIVu1bsZA40jDdaotZp9Q0at6KxNrxKYYU0am2qlLQ9GcQk1JTcNLPCIjtK9sbIDCgYQxPCi0eXEirj19g3UPsOlHkQFMO1Jck0OGar7a0pVfS41l988gJUmFadOpi5NPqNKXJkLqUqYirfMrbcQ88pxp1SlKziVobUTd27ksyZAQl6Tg3EkFVKkTo0k4yIEuC/EiKiuOsuPzVv3jS9ebNDrSkkZoO0rCtybBLbUzCVTo2IKa5RESSiJRFYqaKjmH2zjsR1NpcafSeeQ+i0kGRcFW5ZlBDY42o0+oJqzDLJySqFGeiQ2rSSXSCUart4zSlN+8nZP4oDCVQsRt1NZMsvE+mqxXoM9LpEwzSmyaJ6Oab9uVKXUXbuVSiVbtkGdS8O1KNq3fprrbjlalU91MlLrxurXKcYNFhuLUpOU7CyHYAwU0jEjlUpiVwFNR4iijSnErI0vRF05TZ5w87lIpRkRoS3ku3rQGsw3hHEEZEKNJakwIzMWntQUxjbV0VyMRFKRldupzjhGo1XVXkHZtWAlvKHQalFaoyJBOlUunyZtQccdU980SX20FeNS0kRpdbSSU7XvAhagAAAAAAAx438TL+kT9mkVl9sWs/8AmX3f3Fj4jRnMP1NHjRHyyd1tQsydtHczlIgubN+O0rJ3UEYDLAAAAAAAAAAAAAAAAAAETro9mlY829KaHn3rw44crvemfP2fS7ExqX9mlH859KdDdfDhhynqbz9p0exKtVEakmRGaTMrLxWWl3SttHocKEWDoyR2lK+p5oZ6kaY82hvfy1JdrvGjJHaUr6nmg1I0x5tBfy1JdrvGjJHaUr6nmg1I0x5tBfy1JdrvGjJHaUr6nmg1I0x5tBfy1JdrvGjJHaUr6nmg1I0x5tBfy1JdrvGjJHaUr6nmg1I0x5tBfy1JdrvGjJHaUr6nmg1I0x5tBfy1JdrvGjJHaUr6nmg1I0x5tBfy1JdrvPujJHaUr6nmg1I0x5tBfy1JdrvJHVzAfTFrtPKdIaKnVuoNIQnNeC870olZWz2ekWiYyRpiiFtCH/WXn0q3RkjtKV9TzQjUjTHm0Jv5aku13jRkjtKV9TzQakaY82gv5aku13jRkjtKV9TzQakaY82gv5aku13jRkjtKV9TzQakaY82gv5aku13jRkjtKV9TzQakaY82gv5aku13jRkjtKV9TzQakaY82gv5aku13jRkjtKV9TzQakaY82gv5aku13kprGgPFAorJzpDnSK7SkXVZn4ktDtpWNllLN2idSNMSNtCrLz6VZoyR2lK+p5oRqRpjzaC/lqS7XefNGSO0pX1PNBqRpjzaC/lqS7XeNGSO0pX1PNBqRpjzaC/lqS7XeNGSO0pX1PNBqRpjzaC/lqS7XeNGSO0pX1PNBqRpjzaC/lqS7XeNGSO0pX1PNBqRpjzaC/lqS7XeNGSO0pX1PNBqRpjzaC/lqS7XeNGSO0pX1PNBqRpjzaC/lqS7XeNGSO0pX1PNBqRpjzaC/lqS7XeNGSO0pX1PNBqRpjzaC/lqS7XeNGSO0pX1PNBqRpjzaC/lqS7XeNGSO0pX1PNBqRpjzaC/lqS7XeNGSO0pX1PNBqRpjzaC/lqS7XeNGSO0pX1PNBqRpjzaC/lqS7XeNGSO0pX1PNBqRpjzaC/lqS7XeNGSO0pX1PNBqRpjzaC/lqS7XeNGSO0pX1PNBqRpjzaC/lqS7XeNGSO0pX1PNBqRpjzaC/lqS7XeNGSO0pX1PNBqRpjzaC/lqS7XeNGSO0pX1PNBqRpjzaC/lqS7XeNGSO0pX1PNBqRpjzaC/lqS7XeNGSO0pX1PNBqRpjzaC/lqS7XeNGSO0pX1PNBqRpjzaC/lqS7XeNGSO0pX1PNBqRpjzaC/lqS7XeNGSO0pX1PNBqRpjzaC/lqS7XefdGSO0pX1PNBqRpjzaC/lqS7XefNGSO0pX1PNBqRpjzaC/lqS7XeNGSO0pX1PNBqRpjzaC/lqS7XeNGSO0pX1PNBqRpjzaC/lqS7XeNGSO0pX1PNBqRpjzaC/lqS7XefdGSO0pX1PNBqRpjzaC/lqS7XefNGSO0pX1PNBqRpjzaC/lqS7XeNGSO0pX1PNBqRpjzaC/lqS7XeNGSO0pX1PNBqRpjzaC/lqS7XeNGSO0pX1PNBqRpjzaC/lqS7XeNGSO0pX1PNBqRpjzaC/lqS7XeNGSO0pX1PNBqRpjzaC/lqS7XedEemyDkSi0jKKxafI5fm0/8MVhJHHH+Y82hpPbQ1Zfkl9mWmOVxqlLfOmSyOoSlEbDhGn5nLwDyZGxbUjTHm0M7+WpLtaWPhuBIcw7S3DqMkjXDYMyLM2Fa0nY+bDUjTHm0F/CpLz6Wx0ZI7SlfU80GpGmPNoL+WpLtd40ZI7SlfU80GpGmPNoL+WpLtd40ZI7SlfU80GpGmPNoL+WpLtd40ZI7SlfU80GpGmPNoL+WpLtd40ZI7SlfU80GpGmPNoL+WpLtd40ZI7SlfU80GpGmPNoL+WpLtd40ZI7SlfU80GpGmPNoL+WpLtd40ZI7SlfU80GpGmPNoL+WpLtd40ZI7SlfU80GpGmPNoL+WpLtd40ZI7SlfU80GpGmPNoL+WpLtd40ZI7SlfU80GpGmPNoL+WpLtd40ZI7SlfU80GpGmPNoL+WpLtd40ZI7SlfU80GpGmPNoL+WpLtd5lRmFst3FvLfO22+5dve9wEpL8gvLDEynmhNHHihD3I7XR7NKx5t6U0MN68OOHK7fpnz9n0uxMal/ZpR/OfSnQ3Xw4Ycp6m8/adHsSrYehwQAAAAAAAAAAAEfhT5jHeNYZZEuPQJ6S+niEyqz9qKYCwAAAAAAAAAR+O/n63gyCXhO1npBlupiw5Dh/lsAWAAAAAAAAAAAAAAAAAAAAAAAAAAAAAAAAAAAAAAAAAAAAAAAAADHjfxMv6RP2aRWX2xaz/AOZfd/cX2d/AyPol/wBUxZkwcKf+MUn/AKNj7MgG1AAAAAAAAAAAAAAAAAAETro9mlY829KaHn3rw44crvemfP2fS7ExqX9mlH859KdDdfDhhynqbz9p0exKth6HBAAAAAAAAAAAASEI81rZqrZbEiiQXle+3Kko/MYCvAAAAAAAAAR9cskazsLx9nocKpzVdxR5iOj8jywFgAAAAAAAAAAAAAAAAAAAAAAAAAAAAAAAAAAAAAAAAAAAAAAAAAx438TL+kT9mkVl9sWs/wDmX3f3F2Sf4Z39RX5hZk1mD/8Axak/9K1/UIBtwAAAAAAAAAAAAAAAAABE66PZpWPNvSmh5968OOHK73pnz9n0uxMal/ZpR/OfSnQ3Xw4Ycp6m8/adHsSrYehwQAAAAAAAAAAAEgfB1up/4tAVZ/yppbHKZQFeAAAAAAAAAj0kbmt5Z22pjUBJWbhvzFH+UmQFgAAAAAAAAAAAAAAAAAAAAAAAAAAAAAAAAAAAAAAAAAAAAAAAAAx438TL+kT9mkVl9sWs/wDmX3f3F9nmRQZJnsZpf9UxZkwcKf8AjFJ/6Nj7NIDagAAAAAAAAAAAAAAAAACJ10ezSsebelNDz714ccOV3vTPn7PpdiY1L+zSj+c+lOhuvhww5T1N5+06PYlWw9DggAAAAAAAAAAAJConmta9EWfgyaNUWf2kSIjhfkvAK8AAAAAAAABIU75zWtW1FsR6PTmzs3XZEtWXiAK8AAAAAAAAAAAAAAAAAAAAAAAAAAAAAAAAAAAAAAAAAAAAAAAABjxv4mX9In7NIrL7YtZ/8y+7+4p6r1+o1CozMPYfjtvyGGrKhNkKNMdg3EndRwSNS3D3NoWZMfBteqDWYodUYabNg3IMKWwpRtuqhJJK0KJWUlXcpbth7FgCxAAAAAAAAAAAAAAAAAAETro9mlY829KaHn3rw44crvemfP2fS7ExqX9mlH859KdDdfDhhynqbz9p0exKth6HBAAAAAAAAAABBY7124EwZLVAqEhyVVEJvuQYaSccbTZaWcUZpQi3aI1W9wDEw38W0Cv17AuIqRMakxlyJEKQhtxC1sqnQ1uIbeJBquqJcck2boJekggAAAAAAGnxLiqk4ejMuTTcdkSnMzBgRkG9JkO2W3GWk5VGRZTPYIspmQDx6DjDH9TxJiOtUSkSINIkSWokyc0iLUJzJQGibNtuITxJUWdWs1LTf2bCI7ASrYOMq9TqUWI9LM4swo2o01R5EYolQgEk7HHFtIsJaWtlxtSErSWXLsAPSmnWnmkOtLJxpxJLbWk7UqSorSMjLaMgQ5AAAAAAAAAAAlSVFakyMt0gAAADURbJ2W5Ct3TADURWWnZbkK3dAAAAAAAAAAAAACMjIjI7SPYMgAAAAAAAAAAAAAB8UpKUmpRkSSymZ5CIBpn8YUFDimY7yp8lOyxBQqSq3um2Skp/aMgGJGquJZMiV0KjlHQpaTJ2e+ls/wB2n/dtE8r8pCsPbFpN7Ie7+4oPBkQ36nJkYidU1TqlKkE2hDi22VzkOXVZ1aVJNKrC+bSrIe1lFlG9kKnU7F9Lw+tK1U9cpMyly33EqUkkNLJ9q8fDVbfsTe4XdMB6ICAAAAAAAAAAAAAAAAABE66PZpWPNvSmh5968OOHK73pnz9n0uxMal/ZpR/OfSnQ3Xw4Ycp6m8/adHsSrYehwQAAAAAAAABGa3MWVHDODHpNKIjq859mnU01ZUpflKuJWZH4pWqLugO+jascHwKEilyqcxUVOGl6oypbaXXZcnZW8+pZGa1KUZnYeQtgB51rB1VUmDjWgTMGRGKVXJZSHYrLdrUU5dPJEpla2kcG6okqbXYXxiPZIEvWsJYgbxDhyDWEtGwqU38/HVlNp5tRtvNmf6DiFJ+AENuAAAAAAPGMcVyrxpuLaxTW1P4lalRMLYZaIjUqP0phuS68hNh8JzOqO9Z/uy2iBKu1W6s6XhHD1NKRBi/5laYWioVNpJG64t1d9ZG8ZEtadiy3cBDE1htU3C05nGfBYgSlop2K2LCJuTEfI223lp2DdYWZWK2TQZp3AFBq1jzY2r3DjE4lJlN06Ml1KvCIyaTkPukWQBSAAAAAPL8aVaqt1LEkmLMlFFo7cA1S46jS3TVJPPyjcZvJ6Qao60rURJVwcgJenoWlaErSd5KiI0mWwZGCHnb8iRRsYOPYoZlKizqijQNcjvLOM0lbZJbhPsIUk27VkrKaDSs1ZTtBLawsdSnYNDq8iGhuk4gkNx4hJWan2ukEo463SsunfukSiSfBt+NlBCbwfjJVNo1NocVjOSVNT5rjikPuIS2moPNNoJMdt1Vq1W5TyJItvYBKgpGsJydX4VMmQyoxzIzL7Ueom4zJdW60a1tsEaCQtTSk3FJvXtk7LCykNxPr8osRNYfp7LaphxFT33n1KJtDROE0hJEkjNSlrt3LCL3iATVLxHJxLi6jpchsJgsxJz7sd4zcWzNhTERVrbO7dVdVbcVk4JnsbAJMX4lcpGLZEqfGZlUqjUc6kw2dpvlIU8bRG3ak0kpR2It2iM/eBDsl6y5cBK0S6Y4p1xURqHIQ1Lbjqflum0bJm6ylw1NWXzuIO8nYIjyAOLmL8TzK1R4cRhERpVSXGluSG32UTGOgOyEqYzzROFcUmxX6SbLbpglY1SqnAJsyiuSc5bkaXHRdss2c+6zbs7VoIc6ZUTnMKdOO5Guqu3HFsrM8hHbaw48nb2ztARLOsuoOvRlphsZmRFqEt2MS1qkxyp+QkSCIrEG4eTKWQ8mXZAZ1FxpXKo5TIhQI8adVIOlkJU8txDMQyaSglmSE3nVOOmVichEVtu0AyMP44XV6vGp3QyYWtmoHLO/ezb9OltRVoRwSvIWbpqJWTJZk3AwKbj+tVVMBuBTo6ZE2lO1W195ZIRmn0tE1wUGo717wtoATjebX4DyKTBQSdDR6pM6Q6aTSVQacUyw3dSq1RE2o1KPIWTdyBt9W526vcNHu0uHs7P7hICjAAAAAAAAAAHXIkMRmFvyHEtMtkanHVmSUpItkzMwGiKt1mrZKDFS1EPYqk4lJQot1lgrrjncNV0vfAck4PiSDJytSXqu7s3H1XY5H+jHbut8YjAbuPGjxmiZjtIZaT4LbaSSkveIrCAdcb+Jl/SJ+zSKy+2LWf/Mvu/uKNqWEajDqk5+nFIfp1Tcz78WM6yk0PHZeM2pKVNKSoyvEZWKI90WZEXAq6lKXMq7S2FE2tDC3X+kTDdVZdeW6mxDebs+bQ3kI8oClwxUJM6kNrl2dNYUuNMsyEbzCzbWf7V298IDagAAAAAAAAAAAAAAAAInXR7NKx5t6U0PPvXhxw5Xe9M+fs+l2JjUv7NKP5z6U6G6+HDDlPU3n7To9iVQ1/FNCw+2y5VpCo6JBmlo0tOu2mmwz/dIXZs7Y9DgtL62sAdpL/wD6kvmQHz1t4E2pklReMmn1BRH7xpYMgD1t4F61L/ltR/w4B628C9al/wAtqP8AhwD1t4F61L/ltR/w4B628C9al/y2o/4cA9beBetS/wCW1H/DgJfWRjLBeJMJyYUSVJ0pGW3OpSlU6oXSlxVE6ySv7v4KjTdPuGCXfhDX/his0xTlThz6ZVIvzc6GUKVISl5JcJKFstud5d0wMTTI1sYccxM/imtJlxDhx3YGFqE5DlFKkLcMlvO/u82Tj5toQ2klcFJWnZaA3OANYGE6LhODCqMqTpFWdkzkop1RNKX5Tq5DqEn0fKSFumkj7gCh9beBetS/5bUf8OCD1t4F61L/AJbUf8OAetvAvWpf8tqP+HAPW3gXrUv+W1H/AA4B628C9al/y2o/4cB59j2tYamVmJirDFRkt1mC8xJk0x6n1FMef0UlpbSpfRzNp3NurQlzcOw8hZCW2hf6iqY5GJczCeIY8izhMohZ1Nv6K7yLfhIgMTVTsa03HM2GWJGZNLwzCfTKTQihTpEuY83lb6UptjNNtIPhZtKlXj2TAeg+tTCG7UP5ZUOYBB61cIbtQ/llQ5gA9auEN2ofyyocwAetXCG7UP5ZUOYAPWrhDdqH8sqHMANHUMRatp0ia68VUS3UybKqRm6fUUtSs0kkJzqcx4hElV0yvJKxVpAls42sXBkeXKkodqqlSzQamlwKkptGbTcImkGxYgj2Ts2TBDXKxRq+cnplvu1iQluQcxiI9Cqa47cg7fnEINjaMzNKTO6k8pERglxh4i1bRVxCbKqKi05xT9Ogrp9RUxHcUSivNozHxSWokkozJNvBsAdTNa1aRkROhKq8N+El5tmUxBqSXTbkOm862tRsKJaFOHesUWQ9iwBmPYwwC/LjSJLtWkJhrbejMPQKittDzKDQh3hMGq/Yo/jWGeXZBDsqGNsCTZrM+/VI1QYbWwiWxTqglzMuGRrbVbHUlSTUkjylkPKVgDopmKNWtMlRpMJqotORIzsNr/4+pKLNvupfdNVrJ3lrcReNR5TMBzn4t1bVCZJlTWJ8hcuGdOkNrptRNCoxrNZpu5jZtVs7IDoXiTV89TlQJkitTGbW1Mrfh1NTjKmFEtpbThMJUlaFERkvwt0zBLm5irBL3QlKerkqZAkHKjSugT1OpWbSmVbMckXFNrUk03bMtuzlAbKXrAwbMJJS6XUJJItuZ2jzF2W7Nl5k7AQ+xtYmEYjZtxKbUY6FHeNDVImoSati0ySyQCApFbjIKC2pnEcXpCn/APMkZyFMchONvoczqGE5tS+E84Sm1EdqU7O4CVaeJsEJRTijRa1FfpUfokKSzTZxOpj3UpNpRqZUS0nm0nwiPKVuyA6E1nADRwlxYlciPQEvobfYgVFLi0Slk7IS6o2jNedcSS1GeW9lIyAc6VXtX1L6L0Kn1hsocJVNjkdOqCrsdaycNOVrKd5JZdkB0tVXV8xHZjxolcjttQWqU4TUCoEb0RhJpabdM2TNVwlKsUVisp5coDcUrH2EaXTIlMhwqsiJCZRHjoOmT1GTbSSSkrTay5CBDK9aOHOq1b+VzuZAPWjhzqtW/lc7mQD1o4c6rVv5XO5kA9aOHOq1b+VzuZAPWjhzqtW/lc7mQD1o4c6rVv5XO5kA9aOHOq1b+VzuZAPWfQj/AHdPrDu7cpU47PftaIBO1fHjEuvMLl4drs2ix0EthhumyST0i07VvNuJRfulZc2SLKezYCW/LWjSLl5dIrjfcVSZlv5GzBD6nWlRVHYml1sz3NEzebAfV60KMgrVUutkW7oqbzYDXp1wYWYekKeh1hBOKJRXqVNLISEl5PuCsIfzFpNHHCGHK++u/BXkar/LJnNizN3sa4MNSbejQKy+dlpE3Spp2+983YAw8O6wIcZueuTRa4yqVNekNtHS5ZmSFmV226hRWnZbsgNr6zaR2TW/5VN5sA9ZtI7Jrf8AKpvNgHrNpHZNb/lU3mwD1m0jsmt/yqbzYB6zaR2TW/5VN5sA9ZtI7Jrf8qm82Aes2kdk1v8AlU3mwD1m0jsmt/yqbzYAes2m/EotecPbJFJmZO+ggHz1mQuwMQfymX8kA9ZkLsDEH8pl/JAdkbWLDkSWmCoddbN5aUE47S5SG03jstWo02JSW2ZgKwBE66PZpWPNvSmh5968OOHK73pnz9n0uxMal/ZpR/OfSnQ3Xw4Ycp6m8/adHsSrYehwQAAAAAAAAAAS2ItXNDrU06i2/Mo1VWRJdqVJfOI+4kshE6pJGTlm1eIwHPDmr2g0SX0/OSqrVSTcTVKo8cuSlJ7KULX4BHt3SK0BTAAAAAAAAAAAAAAAAAAAAAAAAAAAAAAAAAAAAAAAAAAAAAAAAAAAAAAAAAAAAAAAAAAAAAAAAAAAAAAAAAACJ10ezSsebelNDz714ccOV3vTPn7PpdiZ5dgv14/5Zh/5Y/7H850T/t/lV5z9/wDOfvL2z+YeOyvtWGr7P+H1n/p//k383EeL/GPxKIYv8/x7MTd/iW92ihp9xhieD8Dhen4lvdooPuMMR+BwvT8S3u0UH3GGI/A4Xp+Jb3aKD7jDEfgcL0/Et7tFB9xhiPwOF6fiW92ig+4wxH4HC9PxLe7RQfcYYj8Dhen4lvdooPuMMR+BwvT8S3u0UH3GGI/A4Xp+Jb3aKD7jDEfgcL0/Et7tFB9xhiPwOF6fiW92ig+4wxH4HC9PxLe7RQfcYYj8Dhen4lvdooPuMMR+BwvT8S3u0UH3GGI/A4Xp+Jb3aKD7jDEfgcL0/Et7tFB9xhiPwOF6fiW92ig+4wxH4HC9PxLe7RQfcYYj8Dhen4lvdooPuMMR+BwvT8S3u0UH3GGI/A4Xp+Jb3aKD7jDEfgcL0/Et7tFB9xhiPwOF6fiW92ig+4wxH4HC9PxLe7RQfcYYj8Dhen4lvdooPuMMR+BwvT8S3u0UH3GGI/A4Xp+Jb3aKD7jDEfgcL0/Et7tFB9xhiPwOF6fiW92ig+4wxH4HC9PxLe7RQfcYYj8Dhen4lvdooPuMMR+BwvT8S3u0UH3GGI/A4Xp+Jb3aKD7jDEfgcL0/Et7tFB9xhiPwOF6fiW92ig+4wxH4HC9PxLe7RQfcYYj8Dhen4lvdooPuMMR+BwvT8S3u0UH3GGI/A4Xp+Jb3aKD7jDEfgcL0/Et7tFB9xhiPwOF6fiW92ig+4wxH4HC9PxLe7RQfcYYj8Dhen4lvdooPuMMR+BwvT8S3u0UH3GGI/A4Xp+Jb3aKD7jDEfgcL0/Et7tFB9xhiPwOF6fiW92ig+4wxH4HC9PxLe7RQfcYYj8Dhen4lvdooPuMMR+BwvT8S3u0UH3GGI/A4Xp+Jb3aKD7jDEfgcL0/Et7tFB9xhiPwOF6fiW92ig+4wxH4HC9PxLe7RQfcYYj8Dhen4lvdooPuMMR+BwvT8S3u0UH3GGI/A4Xp+Jb3aKD7jDEfgcL0/Et7tFB9xhiPwOF6fiW92ig+4wxH4HC9PxLe7RQfcYYj8Dhen4lvdooPuMMR+BwvT8S3u0UH3GGI/A4Xp+Jb3aKD7jDEfgcL0/Et7tFB9xhiPwOF6fiW92ig+4wxH4HC9PxLe7RQfcYYj8Dhen4lvdooPuMMR+BwvT8S3u0UH3GGI/A4Xp+Jb3aKD7jDEfgcL0/Et7tFB9xhiPwOF6fiW92ig+4wxH4HC9PxLe7RQfcYYj8DhetJjT14/5Zmf5n/7H830v/t/lUZv9x85+8u7H5hna32rHW9n/D3/APmf/k38vD+L/OLxKI4/9fx7Mb//2Q==;opacity=0;imageBorder=#000000;" vertex="1" parent="1">
          <mxGeometry x="40" y="710" width="770" height="634.73" as="geometry" />
        </mxCell>
        <mxCell id="uXcgF_b3eWIGet4o3PPk-29" value="" style="shape=crossbar;whiteSpace=wrap;html=1;rounded=1;fillColor=#f5f5f5;strokeColor=#666666;fontColor=#333333;rotation=90;" vertex="1" parent="1">
          <mxGeometry x="157.5" y="101.75" width="76" height="20" as="geometry" />
        </mxCell>
        <mxCell id="uXcgF_b3eWIGet4o3PPk-30" value="" style="group" vertex="1" connectable="0" parent="1">
          <mxGeometry x="112" y="75" width="166" height="605" as="geometry" />
        </mxCell>
        <mxCell id="uXcgF_b3eWIGet4o3PPk-9" value="" style="ellipse;whiteSpace=wrap;html=1;fillColor=none;" vertex="1" parent="uXcgF_b3eWIGet4o3PPk-30">
          <mxGeometry x="53" width="63" height="75" as="geometry" />
        </mxCell>
        <mxCell id="uXcgF_b3eWIGet4o3PPk-10" value="" style="rounded=1;whiteSpace=wrap;html=1;fillColor=none;" vertex="1" parent="uXcgF_b3eWIGet4o3PPk-30">
          <mxGeometry x="80.5" y="77" width="6" height="150" as="geometry" />
        </mxCell>
        <mxCell id="uXcgF_b3eWIGet4o3PPk-12" value="" style="ellipse;whiteSpace=wrap;html=1;fillColor=none;" vertex="1" parent="uXcgF_b3eWIGet4o3PPk-30">
          <mxGeometry x="44" y="227" width="82" height="68" as="geometry" />
        </mxCell>
        <mxCell id="uXcgF_b3eWIGet4o3PPk-13" value="" style="shape=xor;whiteSpace=wrap;html=1;fillColor=none;rotation=-90;" vertex="1" parent="uXcgF_b3eWIGet4o3PPk-30">
          <mxGeometry x="32" y="113" width="101" height="81" as="geometry" />
        </mxCell>
        <mxCell id="uXcgF_b3eWIGet4o3PPk-14" value="" style="shape=xor;whiteSpace=wrap;html=1;fillColor=none;rotation=-90;" vertex="1" parent="uXcgF_b3eWIGet4o3PPk-30">
          <mxGeometry x="80.75" y="52.25" width="9" height="109.5" as="geometry" />
        </mxCell>
        <mxCell id="uXcgF_b3eWIGet4o3PPk-15" value="" style="rounded=1;whiteSpace=wrap;html=1;fillColor=none;rotation=10;" vertex="1" parent="uXcgF_b3eWIGet4o3PPk-30">
          <mxGeometry x="14.370000000000005" y="111.03" width="13" height="101.83" as="geometry" />
        </mxCell>
        <mxCell id="uXcgF_b3eWIGet4o3PPk-16" value="" style="rounded=1;whiteSpace=wrap;html=1;fillColor=none;rotation=358;" vertex="1" parent="uXcgF_b3eWIGet4o3PPk-30">
          <mxGeometry x="6" y="212.86" width="12" height="89.14" as="geometry" />
        </mxCell>
        <mxCell id="uXcgF_b3eWIGet4o3PPk-17" value="" style="ellipse;whiteSpace=wrap;html=1;fillColor=none;" vertex="1" parent="uXcgF_b3eWIGet4o3PPk-30">
          <mxGeometry y="302" width="25" height="71" as="geometry" />
        </mxCell>
        <mxCell id="uXcgF_b3eWIGet4o3PPk-18" value="" style="rounded=1;whiteSpace=wrap;html=1;fillColor=none;rotation=357;" vertex="1" parent="uXcgF_b3eWIGet4o3PPk-30">
          <mxGeometry x="37" y="290" width="27" height="151" as="geometry" />
        </mxCell>
        <mxCell id="uXcgF_b3eWIGet4o3PPk-19" value="" style="rounded=1;whiteSpace=wrap;html=1;fillColor=none;rotation=357;" vertex="1" parent="uXcgF_b3eWIGet4o3PPk-30">
          <mxGeometry x="27" y="441" width="26" height="149" as="geometry" />
        </mxCell>
        <mxCell id="uXcgF_b3eWIGet4o3PPk-20" value="" style="ellipse;whiteSpace=wrap;html=1;fillColor=none;" vertex="1" parent="uXcgF_b3eWIGet4o3PPk-30">
          <mxGeometry x="25" y="581" width="29" height="24" as="geometry" />
        </mxCell>
        <mxCell id="uXcgF_b3eWIGet4o3PPk-23" value="" style="rounded=1;whiteSpace=wrap;html=1;fillColor=none;rotation=3;flipV=1;" vertex="1" parent="uXcgF_b3eWIGet4o3PPk-30">
          <mxGeometry x="106" y="290" width="27" height="151" as="geometry" />
        </mxCell>
        <mxCell id="uXcgF_b3eWIGet4o3PPk-24" value="" style="rounded=1;whiteSpace=wrap;html=1;fillColor=none;rotation=3;" vertex="1" parent="uXcgF_b3eWIGet4o3PPk-30">
          <mxGeometry x="112" y="441" width="26" height="149" as="geometry" />
        </mxCell>
        <mxCell id="uXcgF_b3eWIGet4o3PPk-25" value="" style="ellipse;whiteSpace=wrap;html=1;fillColor=none;" vertex="1" parent="uXcgF_b3eWIGet4o3PPk-30">
          <mxGeometry x="112" y="581" width="29" height="24" as="geometry" />
        </mxCell>
        <mxCell id="uXcgF_b3eWIGet4o3PPk-26" value="" style="rounded=1;whiteSpace=wrap;html=1;fillColor=none;rotation=350;" vertex="1" parent="uXcgF_b3eWIGet4o3PPk-30">
          <mxGeometry x="143" y="113" width="13" height="101.83" as="geometry" />
        </mxCell>
        <mxCell id="uXcgF_b3eWIGet4o3PPk-27" value="" style="rounded=1;whiteSpace=wrap;html=1;fillColor=none;rotation=2;" vertex="1" parent="uXcgF_b3eWIGet4o3PPk-30">
          <mxGeometry x="150" y="214.83000000000004" width="12" height="89.14" as="geometry" />
        </mxCell>
        <mxCell id="uXcgF_b3eWIGet4o3PPk-28" value="" style="ellipse;whiteSpace=wrap;html=1;fillColor=none;" vertex="1" parent="uXcgF_b3eWIGet4o3PPk-30">
          <mxGeometry x="141" y="302" width="25" height="71" as="geometry" />
        </mxCell>
      </root>
    </mxGraphModel>
  </diagram>
</mxfile>
